<svg width="24" height="25" viewBox="0 0 24 25" fill="none" xmlns="http://www.w3.org/2000/svg">
<path d="M19.8779 1.75488C20.3678 1.80526 20.75 2.22179 20.75 2.72754V18.3633C20.75 18.903 20.3143 19.3408 19.7773 19.3408H19.6875C19.6572 19.3768 19.6244 19.4161 19.5928 19.46C19.4254 19.6924 19.292 19.9845 19.292 20.3184C19.292 20.652 19.4255 20.9434 19.5928 21.1758C19.6244 21.2198 19.6571 21.2598 19.6875 21.2959H19.7773C20.3142 21.2959 20.7499 21.7329 20.75 22.2725C20.75 22.8122 20.3143 23.25 19.7773 23.25H6.16699C4.55622 23.25 3.2501 21.9375 3.25 20.3184V4.68164C3.2501 3.06252 4.55622 1.75 6.16699 1.75H19.7773L19.8779 1.75488ZM6.16699 19.3398C5.63005 19.3398 5.19434 19.7777 5.19434 20.3174C5.19448 20.857 5.63014 21.2939 6.16699 21.2939H17.5C17.4082 21.0025 17.3477 20.6761 17.3477 20.3174C17.3477 19.9584 17.4081 19.6314 17.5 19.3398H6.16699ZM9 3.5V10.5L12 7.5L15 10.5V3.5H9Z" fill="#87B842"/>
</svg>
