<svg width="20" height="20" viewBox="0 0 20 20" fill="none" xmlns="http://www.w3.org/2000/svg">
<path d="M5.69412 1.66675C3.44788 1.66675 1.62695 3.53223 1.62695 5.83341C1.62695 7.37567 2.44486 8.72222 3.66054 9.44266V14.8694C3.66054 15.5506 3.66054 15.8912 3.78437 16.1975C3.90821 16.5038 4.14332 16.7447 4.61353 17.2264L5.69412 18.3334L7.40899 16.5766C7.48808 16.4956 7.52765 16.455 7.56046 16.4111C7.64661 16.2956 7.7018 16.1591 7.72056 16.0151C7.7277 15.9602 7.7277 15.9029 7.7277 15.7883C7.7277 15.6956 7.7277 15.6492 7.7229 15.6042C7.71032 15.486 7.67323 15.372 7.6141 15.2698C7.59155 15.2308 7.56439 15.1937 7.51007 15.1195L6.50755 13.7501L7.07695 12.9723C7.39947 12.5318 7.56073 12.3115 7.64421 12.0549C7.7277 11.7983 7.7277 11.523 7.7277 10.9723V9.44266C8.94338 8.72222 9.76128 7.37567 9.76128 5.83341C9.76128 3.53223 7.94035 1.66675 5.69412 1.66675Z" stroke="#EEE6DA" stroke-width="1.5" stroke-linejoin="round"/>
<path d="M5.69336 5.8335H5.70084" stroke="#EEE6DA" stroke-width="2" stroke-linecap="round" stroke-linejoin="round"/>
<path d="M10.5742 11.6667H15.4548C16.2128 11.6667 16.5919 11.6667 16.8908 11.7936C17.2895 11.9628 17.6062 12.2872 17.7713 12.6956C17.8951 13.0019 17.8951 13.3902 17.8951 14.1667C17.8951 14.9433 17.8951 15.3316 17.7713 15.6379C17.6062 16.0463 17.2895 16.3707 16.8908 16.5399C16.5919 16.6667 16.2128 16.6667 15.4548 16.6667H10.5742" stroke="#EEE6DA" stroke-width="1.5" stroke-linecap="round"/>
<path d="M12.2012 4.16675H15.4549C16.2129 4.16675 16.5919 4.16675 16.8909 4.29362C17.2895 4.46277 17.6062 4.78723 17.7714 5.19561C17.8952 5.50189 17.8952 5.89018 17.8952 6.66675C17.8952 7.44332 17.8952 7.8316 17.7714 8.13789C17.6062 8.54627 17.2895 8.87072 16.8909 9.03988C16.5919 9.16675 16.2129 9.16675 15.4549 9.16675H12.2012" stroke="#EEE6DA" stroke-width="1.5" stroke-linecap="round"/>
</svg>
