<svg width="46" height="46" viewBox="0 0 46 46" fill="none" xmlns="http://www.w3.org/2000/svg">
<circle cx="23" cy="23" r="22" fill="#87B842" stroke="#2F2F2F" stroke-width="2"/>
<path opacity="0.4" d="M21 18L20.4841 19.394C19.8077 21.222 19.4695 22.136 18.8028 22.8028C18.136 23.4695 17.222 23.8077 15.3941 24.4842L14 25L15.3941 25.5158C17.222 26.1923 18.136 26.5305 18.8028 27.1972C19.4695 27.864 19.8077 28.778 20.4841 30.6059L21 32L21.5158 30.6059C22.1923 28.778 22.5305 27.864 23.1972 27.1972C23.864 26.5305 24.778 26.1923 26.6059 25.5158L28 25L26.6059 24.4842C24.778 23.8077 23.864 23.4695 23.1972 22.8028C22.5305 22.136 22.1923 21.222 21.5158 19.394L21 18Z" fill="black"/>
<path opacity="0.4" d="M29 14L28.7789 14.5975C28.489 15.3809 28.3441 15.7726 28.0583 16.0583C27.7726 16.3441 27.3809 16.489 26.5975 16.7789L26 17L26.5975 17.2211C27.3809 17.511 27.7726 17.6559 28.0583 17.9417C28.3441 18.2274 28.489 18.6191 28.7789 19.4025L29 20L29.2211 19.4025C29.511 18.6191 29.6559 18.2274 29.9417 17.9417C30.2274 17.6559 30.6191 17.511 31.4025 17.2211L32 17L31.4025 16.7789C30.6191 16.489 30.2274 16.3441 29.9417 16.0583C29.6559 15.7726 29.511 15.3809 29.2211 14.5975L29 14Z" fill="black"/>
<path d="M21 18L20.4841 19.394C19.8077 21.222 19.4695 22.136 18.8028 22.8028C18.136 23.4695 17.222 23.8077 15.3941 24.4842L14 25L15.3941 25.5158C17.222 26.1923 18.136 26.5305 18.8028 27.1972C19.4695 27.864 19.8077 28.778 20.4841 30.6059L21 32L21.5158 30.6059C22.1923 28.778 22.5305 27.864 23.1972 27.1972C23.864 26.5305 24.778 26.1923 26.6059 25.5158L28 25L26.6059 24.4842C24.778 23.8077 23.864 23.4695 23.1972 22.8028C22.5305 22.136 22.1923 21.222 21.5158 19.394L21 18Z" stroke="black" stroke-width="1.5" stroke-linejoin="round"/>
<path d="M29 14L28.7789 14.5975C28.489 15.3809 28.3441 15.7726 28.0583 16.0583C27.7726 16.3441 27.3809 16.489 26.5975 16.7789L26 17L26.5975 17.2211C27.3809 17.511 27.7726 17.6559 28.0583 17.9417C28.3441 18.2274 28.489 18.6191 28.7789 19.4025L29 20L29.2211 19.4025C29.511 18.6191 29.6559 18.2274 29.9417 17.9417C30.2274 17.6559 30.6191 17.511 31.4025 17.2211L32 17L31.4025 16.7789C30.6191 16.489 30.2274 16.3441 29.9417 16.0583C29.6559 15.7726 29.511 15.3809 29.2211 14.5975L29 14Z" stroke="black" stroke-width="1.5" stroke-linejoin="round"/>
</svg>
