<svg width="46" height="46" viewBox="0 0 46 46" fill="none" xmlns="http://www.w3.org/2000/svg">
<circle cx="23" cy="23" r="22" fill="#87B842" stroke="#2F2F2F" stroke-width="2"/>
<path opacity="0.4" d="M24.0001 15H22.0001C18.2289 15 16.3432 15 15.1717 16.1716C14.2286 17.1147 14.0447 18.5204 14.0088 21H31.9914C31.9555 18.5204 31.7716 17.1147 30.8285 16.1716C29.6569 15 27.7713 15 24.0001 15Z" fill="black"/>
<path d="M27 13V17M19 13V17" stroke="black" stroke-width="1.5" stroke-linecap="round" stroke-linejoin="round"/>
<path d="M32 25V23C32 19.2288 32 17.3431 30.8284 16.1716C29.6569 15 27.7712 15 24 15H22C18.2288 15 16.3431 15 15.1716 16.1716C14 17.3431 14 19.2288 14 23V25C14 28.7712 14 30.6569 15.1716 31.8284C16.3431 33 18.2288 33 22 33H23" stroke="black" stroke-width="1.5" stroke-linecap="round" stroke-linejoin="round"/>
<path d="M14 21H32" stroke="black" stroke-width="1.5" stroke-linecap="round" stroke-linejoin="round"/>
<path d="M29.1047 26.5055L29.7206 27.7475C29.8046 27.9204 30.0286 28.0862 30.2175 28.118L31.3339 28.305C32.0478 28.425 32.2158 28.9472 31.7014 29.4624L30.8335 30.3374C30.6865 30.4856 30.606 30.7715 30.6515 30.9761L30.9 32.0594C31.096 32.9168 30.6445 33.2485 29.8921 32.8004L28.8457 32.1758C28.6567 32.0629 28.3453 32.0629 28.1528 32.1758L27.1064 32.8004C26.3575 33.2485 25.9025 32.9133 26.0985 32.0594L26.347 30.9761C26.3925 30.7715 26.312 30.4856 26.165 30.3374L25.2971 29.4624C24.7861 28.9472 24.9506 28.425 25.6646 28.305L26.7809 28.118C26.9664 28.0862 27.1904 27.9204 27.2744 27.7475L27.8903 26.5055C28.2263 25.8315 28.7722 25.8315 29.1047 26.5055Z" stroke="black" stroke-width="1.5" stroke-linecap="round" stroke-linejoin="round"/>
</svg>
