<svg width="21" height="22" viewBox="0 0 21 22" fill="none" xmlns="http://www.w3.org/2000/svg">
<g clip-path="url(#clip0_32438_2259)">
<path d="M14.5396 0.5C14.5885 0.5 14.6374 0.5 14.689 0.5C14.8089 1.98096 14.2436 3.08754 13.5566 3.88888C12.8825 4.68469 11.9594 5.45653 10.4665 5.33942C10.3669 3.87966 10.9331 2.85516 11.6192 2.05566C12.2555 1.31057 13.422 0.647543 14.5396 0.5Z" fill="white"/>
<path d="M19.06 15.9146C19.06 15.9293 19.06 15.9422 19.06 15.9561C18.6404 17.2268 18.0419 18.3158 17.3116 19.3265C16.6449 20.244 15.8279 21.4788 14.369 21.4788C13.1085 21.4788 12.2712 20.6682 10.9792 20.6461C9.61262 20.624 8.86107 21.3239 7.61156 21.5C7.46863 21.5 7.3257 21.5 7.18553 21.5C6.268 21.3672 5.52752 20.6406 4.98806 19.9858C3.39736 18.0512 2.16814 15.5522 1.93945 12.3542C1.93945 12.0406 1.93945 11.728 1.93945 11.4145C2.03628 9.12575 3.14838 7.26486 4.62658 6.36301C5.40672 5.88349 6.47917 5.47498 7.67335 5.65756C8.18514 5.73687 8.70799 5.91208 9.1663 6.08544C9.60063 6.25235 10.1438 6.54836 10.6583 6.53268C11.0069 6.52254 11.3536 6.34087 11.705 6.2127C12.7341 5.84107 13.7429 5.41504 15.0726 5.61515C16.6707 5.85675 17.805 6.5668 18.5058 7.66231C17.1539 8.52267 16.0852 9.8192 16.2677 12.0333C16.43 14.0445 17.5993 15.2211 19.06 15.9146Z" fill="white"/>
</g>
<defs>
<clipPath id="clip0_32438_2259">
<rect width="21" height="21" fill="white" transform="translate(0 0.5)"/>
</clipPath>
</defs>
</svg>
