<svg width="25" height="24" viewBox="0 0 25 24" fill="none" xmlns="http://www.w3.org/2000/svg">
<path d="M16.8335 2V6M8.8335 2V6" stroke="#5E5E5E" stroke-width="1.5" stroke-linecap="round" stroke-linejoin="round"/>
<path d="M21.8335 14V12C21.8335 8.22876 21.8335 6.34315 20.6619 5.17157C19.4904 4 17.6047 4 13.8335 4H11.8335C8.06226 4 6.17665 4 5.00507 5.17157C3.8335 6.34315 3.8335 8.22876 3.8335 12V14C3.8335 17.7712 3.8335 19.6569 5.00507 20.8284C6.17665 22 8.06226 22 11.8335 22H12.8335" stroke="#5E5E5E" stroke-width="1.5" stroke-linecap="round" stroke-linejoin="round"/>
<path d="M3.8335 10H21.8335" stroke="#5E5E5E" stroke-width="1.5" stroke-linecap="round" stroke-linejoin="round"/>
<path d="M18.9382 15.5055L19.5541 16.7475C19.6381 16.9204 19.8621 17.0862 20.051 17.118L21.1674 17.305C21.8813 17.425 22.0493 17.9472 21.5349 18.4624L20.667 19.3374C20.52 19.4856 20.4395 19.7715 20.485 19.9761L20.7335 21.0594C20.9295 21.9168 20.478 22.2485 19.7256 21.8004L18.6792 21.1758C18.4902 21.0629 18.1788 21.0629 17.9863 21.1758L16.9399 21.8004C16.191 22.2485 15.736 21.9133 15.932 21.0594L16.1805 19.9761C16.226 19.7715 16.1455 19.4856 15.9985 19.3374L15.1306 18.4624C14.6196 17.9472 14.7841 17.425 15.4981 17.305L16.6144 17.118C16.7999 17.0862 17.0239 16.9204 17.1079 16.7475L17.7238 15.5055C18.0598 14.8315 18.6057 14.8315 18.9382 15.5055Z" stroke="#5E5E5E" stroke-width="1.5" stroke-linecap="round" stroke-linejoin="round"/>
</svg>
