<svg width="25" height="25" viewBox="0 0 25 25" fill="none" xmlns="http://www.w3.org/2000/svg">
<path d="M10.5 7.5L9.98415 8.89405C9.30774 10.722 8.96953 11.636 8.30278 12.3028C7.63603 12.9695 6.72204 13.3077 4.89405 13.9842L3.5 14.5L4.89405 15.0158C6.72204 15.6923 7.63603 16.0305 8.30278 16.6972C8.96953 17.364 9.30774 18.278 9.98415 20.1059L10.5 21.5L11.0158 20.1059C11.6923 18.278 12.0305 17.364 12.6972 16.6972C13.364 16.0305 14.278 15.6923 16.1059 15.0158L17.5 14.5L16.1059 13.9842C14.278 13.3077 13.364 12.9695 12.6972 12.3028C12.0305 11.636 11.6923 10.722 11.0158 8.89405L10.5 7.5Z" stroke="white" stroke-width="1.5" stroke-linejoin="round"/>
<path d="M18.5 3.5L18.2789 4.09745C17.989 4.88087 17.8441 5.27259 17.5583 5.55833C17.2726 5.84408 16.8809 5.98903 16.0975 6.27892L15.5 6.5L16.0975 6.72108C16.8809 7.01097 17.2726 7.15592 17.5583 7.44167C17.8441 7.72741 17.989 8.11913 18.2789 8.90255L18.5 9.5L18.7211 8.90255C19.011 8.11913 19.1559 7.72741 19.4417 7.44166C19.7274 7.15592 20.1191 7.01097 20.9025 6.72108L21.5 6.5L20.9025 6.27892C20.1191 5.98903 19.7274 5.84408 19.4417 5.55833C19.1559 5.27259 19.011 4.88087 18.7211 4.09745L18.5 3.5Z" stroke="white" stroke-width="1.5" stroke-linejoin="round"/>
</svg>
