<svg width="25" height="24" viewBox="0 0 25 24" fill="none" xmlns="http://www.w3.org/2000/svg">
<path d="M10.25 7L9.73415 8.39405C9.05774 10.222 8.71953 11.136 8.05278 11.8028C7.38603 12.4695 6.47204 12.8077 4.64405 13.4842L3.25 14L4.64405 14.5158C6.47204 15.1923 7.38603 15.5305 8.05278 16.1972C8.71953 16.864 9.05774 17.778 9.73415 19.6059L10.25 21L10.7658 19.6059C11.4423 17.778 11.7805 16.864 12.4472 16.1972C13.114 15.5305 14.028 15.1923 15.8559 14.5158L17.25 14L15.8559 13.4842C14.028 12.8077 13.114 12.4695 12.4472 11.8028C11.7805 11.136 11.4423 10.222 10.7658 8.39405L10.25 7Z" stroke="#5E5E5E" stroke-width="1.5" stroke-linejoin="round"/>
<path d="M18.25 3L18.0289 3.59745C17.739 4.38087 17.5941 4.77259 17.3083 5.05833C17.0226 5.34408 16.6309 5.48903 15.8475 5.77892L15.25 6L15.8475 6.22108C16.6309 6.51097 17.0226 6.65592 17.3083 6.94167C17.5941 7.22741 17.739 7.61913 18.0289 8.40255L18.25 9L18.4711 8.40255C18.761 7.61913 18.9059 7.22741 19.1917 6.94166C19.4774 6.65592 19.8691 6.51097 20.6525 6.22108L21.25 6L20.6525 5.77892C19.8691 5.48903 19.4774 5.34408 19.1917 5.05833C18.9059 4.77259 18.761 4.38087 18.4711 3.59745L18.25 3Z" stroke="#5E5E5E" stroke-width="1.5" stroke-linejoin="round"/>
</svg>
