<svg width="20" height="21" viewBox="0 0 20 21" fill="none" xmlns="http://www.w3.org/2000/svg">
<path d="M7.06165 3.32633L1.23911 8.42134C0.7398 8.8583 1.07458 9.6343 1.76238 9.6343C2.18259 9.6343 2.52324 9.9489 2.52324 10.3371V13.5806C2.52324 16.371 2.52324 17.7662 3.46176 18.6331C4.40029 19.5 5.91082 19.5 8.9319 19.5H11.0681C14.0892 19.5 15.5997 19.5 16.5382 18.6331C17.4768 17.7662 17.4768 16.371 17.4768 13.5806V10.3371C17.4768 9.9489 17.8174 9.6343 18.2376 9.6343C18.9254 9.6343 19.2602 8.8583 18.7609 8.42134L12.9383 3.32633C11.5469 2.10878 10.8512 1.5 10 1.5C9.1488 1.5 8.4531 2.10878 7.06165 3.32633Z" stroke="white" stroke-width="1.5" stroke-linecap="round" stroke-linejoin="round"/>
</svg>
