<svg width="20" height="20" viewBox="0 0 20 20" fill="none" xmlns="http://www.w3.org/2000/svg">
<path d="M7.06165 2.82633L1.23911 7.92134C0.7398 8.3583 1.07458 9.1343 1.76238 9.1343C2.18259 9.1343 2.52324 9.4489 2.52324 9.8371V13.0806C2.52324 15.871 2.52324 17.2662 3.46176 18.1331C4.40029 19 5.91082 19 8.9319 19H11.0681C14.0892 19 15.5997 19 16.5382 18.1331C17.4768 17.2662 17.4768 15.871 17.4768 13.0806V9.8371C17.4768 9.4489 17.8174 9.1343 18.2376 9.1343C18.9254 9.1343 19.2602 8.3583 18.7609 7.92134L12.9383 2.82633C11.5469 1.60878 10.8512 1 10 1C9.1488 1 8.4531 1.60878 7.06165 2.82633Z" stroke="#5E5E5E" stroke-width="1.5" stroke-linecap="round" stroke-linejoin="round"/>
</svg>
