<svg width="18" height="14" viewBox="0 0 18 14" fill="none" xmlns="http://www.w3.org/2000/svg">
<path fill-rule="evenodd" clip-rule="evenodd" d="M3.30371 5.75H14.5537V2.31437C14.5529 2.05529 14.4609 1.83415 14.2777 1.65095C14.0946 1.46776 13.8741 1.37577 13.6162 1.375L4.24308 1.375C3.984 1.37577 3.76286 1.46776 3.57966 1.65095C3.39647 1.83415 3.30448 2.05467 3.30371 2.3125V5.75ZM15.8037 6.00311V2.31063C15.8019 1.70784 15.5879 1.19332 15.1616 0.76707C14.7354 0.340825 14.2203 0.126802 13.6162 0.125L4.23934 0.125003C3.63655 0.126803 3.12203 0.340825 2.69578 0.76707C2.26953 1.19331 2.05551 1.70846 2.05371 2.3125V6.00293C1.70584 6.15546 1.38665 6.37696 1.09616 6.66745C0.487077 7.27654 0.181259 8.01239 0.178711 8.875V13.25C0.178711 13.5952 0.458536 13.875 0.803711 13.875C1.14889 13.875 1.42871 13.5952 1.42871 13.25V8.875C1.43024 8.35859 1.61402 7.91737 1.98005 7.55134C2.34586 7.18552 2.7874 7.00174 3.30465 7H14.5537C15.0701 7.00153 15.5113 7.18531 15.8774 7.55134C16.2434 7.91737 16.4272 8.3592 16.4287 8.87685V13.25C16.4287 13.5952 16.7085 13.875 17.0537 13.875C17.3989 13.875 17.6787 13.5952 17.6787 13.25V8.87315C17.6762 8.01178 17.3703 7.27654 16.7612 6.66745C16.4709 6.37708 16.1517 6.15563 15.8037 6.00311Z" fill="#2887FF"/>
<path fill-rule="evenodd" clip-rule="evenodd" d="M9.55371 6.375V5.75C9.5546 5.57788 9.61596 5.43091 9.73779 5.30908C9.85962 5.18726 10.0066 5.1259 10.1787 5.125L13.302 5.125C13.4749 5.12548 13.6224 5.18684 13.7446 5.30908C13.8669 5.43132 13.9282 5.5783 13.9287 5.75V6.375C13.9287 6.72018 14.2085 7 14.5537 7C14.8989 7 15.1787 6.72018 15.1787 6.375V5.75C15.1772 5.23215 14.9938 4.79055 14.6285 4.4252C14.2632 4.05985 13.8221 3.87645 13.3054 3.875H10.177C9.69505 3.87635 9.27897 4.03598 8.92871 4.3539C8.57845 4.03598 8.16237 3.87635 7.68046 3.875L4.55371 3.875C4.03586 3.87645 3.59426 4.05985 3.22891 4.4252C3.21749 4.43662 3.20625 4.44811 3.19519 4.45967C2.85228 4.81819 2.68012 5.24771 2.67871 5.74825V6.375C2.67871 6.72018 2.95853 7 3.30371 7C3.64889 7 3.92871 6.72018 3.92871 6.375V5.75103C3.92936 5.57847 3.99072 5.43115 4.11279 5.30908C4.23503 5.18684 4.382 5.12548 4.55371 5.125L7.67696 5.125C7.84983 5.12548 7.99739 5.18684 8.11963 5.30908C8.24187 5.43132 8.30323 5.5783 8.30371 5.75V6.375C8.30371 6.72018 8.58354 7 8.92871 7C9.27388 7 9.55371 6.72018 9.55371 6.375ZM0.178711 12.9375V13.25C0.178711 13.5952 0.458536 13.875 0.803711 13.875C1.14889 13.875 1.42871 13.5952 1.42871 13.25V12.9375C1.42896 12.852 1.45974 12.7786 1.52104 12.7173C1.58234 12.656 1.65633 12.6252 1.74302 12.625H16.1162C16.2017 12.6252 16.2751 12.656 16.3364 12.7173C16.3977 12.7786 16.4284 12.8526 16.4287 12.9393V13.25C16.4287 13.5952 16.7085 13.875 17.0537 13.875C17.3989 13.875 17.6787 13.5952 17.6787 13.25V12.9357C17.6774 12.5052 17.5246 12.1378 17.2203 11.8334C16.9159 11.5291 16.5479 11.3763 16.1162 11.375H1.7394C1.30894 11.3763 0.94153 11.5291 0.637154 11.8334C0.332777 12.1378 0.179962 12.5058 0.178711 12.9375Z" fill="#2887FF"/>
</svg>
