<svg width="20" height="20" viewBox="0 0 20 20" fill="none" xmlns="http://www.w3.org/2000/svg">
<path d="M13.3327 1.66663V4.99996M6.66602 1.66663V4.99996" stroke="#87B842" stroke-width="1.5" stroke-linecap="round" stroke-linejoin="round"/>
<path d="M17.5 11.6667V10C17.5 6.85734 17.5 5.286 16.5237 4.30968C15.5474 3.33337 13.976 3.33337 10.8333 3.33337H9.16667C6.02397 3.33337 4.45262 3.33337 3.47631 4.30968C2.5 5.286 2.5 6.85734 2.5 10V11.6667C2.5 14.8094 2.5 16.3808 3.47631 17.357C4.45262 18.3334 6.02397 18.3334 9.16667 18.3334H10" stroke="#87B842" stroke-width="1.5" stroke-linecap="round" stroke-linejoin="round"/>
<path d="M2.5 8.33337H17.5" stroke="#87B842" stroke-width="1.5" stroke-linecap="round" stroke-linejoin="round"/>
<path d="M15.0866 12.9213L15.5999 13.9562C15.6699 14.1003 15.8565 14.2385 16.014 14.265L16.9443 14.4208C17.5392 14.5208 17.6792 14.956 17.2505 15.3853L16.5273 16.1145C16.4048 16.238 16.3377 16.4763 16.3756 16.6468L16.5827 17.5495C16.746 18.264 16.3698 18.5404 15.7428 18.167L14.8708 17.6465C14.7133 17.5524 14.4538 17.5524 14.2934 17.6465L13.4214 18.167C12.7973 18.5404 12.4181 18.2611 12.5815 17.5495L12.7885 16.6468C12.8265 16.4763 12.7594 16.238 12.6369 16.1145L11.9136 15.3853C11.4878 14.956 11.6249 14.5208 12.2199 14.4208L13.1501 14.265C13.3047 14.2385 13.4914 14.1003 13.5614 13.9562L14.0746 12.9213C14.3546 12.3596 14.8095 12.3596 15.0866 12.9213Z" stroke="#87B842" stroke-width="1.5" stroke-linecap="round" stroke-linejoin="round"/>
</svg>
