<svg width="16" height="16" viewBox="0 0 16 16" fill="none" xmlns="http://www.w3.org/2000/svg">
<g clip-path="url(#clip0_32438_901)">
<path opacity="0.4" d="M7.99967 14.6668C11.6816 14.6668 14.6663 11.6821 14.6663 8.00016C14.6663 4.31826 11.6816 1.3335 7.99967 1.3335C4.31778 1.3335 1.33301 4.31826 1.33301 8.00016C1.33301 11.6821 4.31778 14.6668 7.99967 14.6668Z" fill="#757575"/>
<path d="M8.00033 14.6668C11.6822 14.6668 14.667 11.682 14.667 8.00016C14.667 4.31826 11.6822 1.3335 8.00033 1.3335C5.01521 1.3335 2.5165 3.29542 1.66699 6.00016H3.33366" stroke="#757575" stroke-width="1.5" stroke-linecap="round" stroke-linejoin="round"/>
<path d="M8 5.3335V8.00016L9.33333 9.3335" stroke="#757575" stroke-width="1.5" stroke-linecap="round" stroke-linejoin="round"/>
<path d="M1.33301 8C1.33301 8.22487 1.34314 8.44727 1.36297 8.66667M5.99967 14.6667C5.77194 14.5917 5.54948 14.5043 5.33301 14.4052M2.13927 11.3333C2.01071 11.0856 1.89603 10.8289 1.79632 10.5641M3.22049 12.871C3.42427 13.0905 3.64171 13.2961 3.87137 13.4861" stroke="#757575" stroke-width="1.5" stroke-linecap="round" stroke-linejoin="round"/>
</g>
<defs>
<clipPath id="clip0_32438_901">
<rect width="16" height="16" fill="white"/>
</clipPath>
</defs>
</svg>
