<svg width="14" height="14" viewBox="0 0 14 14" fill="none" xmlns="http://www.w3.org/2000/svg">
<path d="M7 0.5C3.41031 0.5 0.5 3.41031 0.5 7C0.5 10.5897 3.41031 13.5 7 13.5C10.5897 13.5 13.5 10.5897 13.5 7C13.5 3.41031 10.5897 0.5 7 0.5ZM10 8H7C6.86193 8 6.74408 7.95118 6.64645 7.85355C6.54881 7.75592 6.5 7.63807 6.5 7.5V3C6.5 2.86193 6.54881 2.74408 6.64645 2.64645C6.74408 2.54882 6.86193 2.5 7 2.5C7.13807 2.5 7.25592 2.54882 7.35355 2.64645C7.45118 2.74408 7.5 2.86193 7.5 3V7H10C10.1381 7 10.2559 7.04882 10.3535 7.14645C10.4512 7.24408 10.5 7.36193 10.5 7.5C10.5 7.63807 10.4512 7.75592 10.3535 7.85355C10.2559 7.95118 10.1381 8 10 8Z" fill="#9CA3AF"/>
</svg>
