<svg width="40" height="40" viewBox="0 0 40 40" fill="none" xmlns="http://www.w3.org/2000/svg">
<rect width="40" height="40" rx="20" fill="#181818"/>
<g clip-path="url(#clip0_32438_5750)">
<mask id="mask0_32438_5750" style="mask-type:luminance" maskUnits="userSpaceOnUse" x="10" y="12" width="20" height="16">
<path d="M10 12H30V28H10V12Z" fill="white"/>
</mask>
<g mask="url(#mask0_32438_5750)">
<path d="M13.25 16.0004H11.75C11.3344 16.0004 11 16.2679 11 16.6004V19.2004H10.25C10.1125 19.2004 10 19.2904 10 19.4004V20.6004C10 20.7104 10.1125 20.8004 10.25 20.8004H11V23.4004C11 23.7329 11.3344 24.0004 11.75 24.0004H13.25C13.6656 24.0004 14 23.7329 14 23.4004V16.6004C14 16.2679 13.6656 16.0004 13.25 16.0004ZM29.75 19.2004H29V16.6004C29 16.2679 28.6656 16.0004 28.25 16.0004H26.75C26.3344 16.0004 26 16.2679 26 16.6004V23.4004C26 23.7329 26.3344 24.0004 26.75 24.0004H28.25C28.6656 24.0004 29 23.7329 29 23.4004V20.8004H29.75C29.8875 20.8004 30 20.7104 30 20.6004V19.4004C30 19.2904 29.8875 19.2004 29.75 19.2004ZM24.25 14.4004H22.75C22.3344 14.4004 22 14.6679 22 15.0004V19.2004H18V15.0004C18 14.6679 17.6656 14.4004 17.25 14.4004H15.75C15.3344 14.4004 15 14.6679 15 15.0004V25.0004C15 25.3329 15.3344 25.6004 15.75 25.6004H17.25C17.6656 25.6004 18 25.3329 18 25.0004V20.8004H22V25.0004C22 25.3329 22.3344 25.6004 22.75 25.6004H24.25C24.6656 25.6004 25 25.3329 25 25.0004V15.0004C25 14.6679 24.6656 14.4004 24.25 14.4004Z" fill="#FF3B3F"/>
</g>
</g>
<defs>
<clipPath id="clip0_32438_5750">
<rect width="20" height="16" fill="white" transform="translate(10 12)"/>
</clipPath>
</defs>
</svg>
