<svg width="24" height="24" viewBox="0 0 24 24" fill="none" xmlns="http://www.w3.org/2000/svg">
<path fill-rule="evenodd" clip-rule="evenodd" d="M17 1.25C13.8563 1.25 11.25 3.6966 11.25 6.78336C11.25 8.26183 11.853 9.60076 12.825 10.5877C12.8505 10.6879 12.8198 11.0051 12.4936 11.4733C12.3267 11.6786 12.2803 11.9567 12.3716 12.2051C12.4628 12.4535 12.6783 12.6354 12.9384 12.6838C13.8291 12.8495 14.9352 12.6029 15.7245 12.1831C16.0889 12.2516 16.6288 12.3171 17 12.3167C20.1437 12.3167 22.75 9.87012 22.75 6.78336C22.75 3.6966 20.1437 1.25 17 1.25ZM15.4922 6.25C15.078 6.25 14.7422 6.58579 14.7422 7C14.7422 7.41421 15.078 7.75 15.4922 7.75H15.5003C15.9145 7.75 16.2503 7.41421 16.2503 7C16.2503 6.58579 15.9145 6.25 15.5003 6.25H15.4922ZM18.4922 6.25C18.078 6.25 17.7422 6.58579 17.7422 7C17.7422 7.41421 18.078 7.75 18.4922 7.75H18.5003C18.9145 7.75 19.2503 7.41421 19.2503 7C19.2503 6.58579 18.9145 6.25 18.5003 6.25H18.4922Z" fill="#87B842"/>
<path d="M4.00049 12.25C4.00049 10.317 5.56749 8.75 7.50049 8.75C9.43348 8.75 11.0005 10.317 11.0005 12.25C11.0005 14.183 9.43348 15.75 7.50049 15.75C5.56749 15.75 4.00049 14.183 4.00049 12.25Z" fill="#87B842"/>
<path d="M3.8261 17.6757C6.07808 16.4414 8.92246 16.4414 11.1744 17.6757C11.6058 17.8993 12.5496 18.39 13.0334 18.8259C13.3317 19.0946 13.676 19.4993 13.74 20.0385C13.8108 20.6347 13.5177 21.1475 13.0592 21.5495C12.311 22.2057 11.3903 22.75 10.1947 22.75H4.8058C3.61027 22.75 2.68958 22.2057 1.94129 21.5495C1.48287 21.1475 1.18972 20.6347 1.26052 20.0385C1.32455 19.4993 1.66888 19.0946 1.96718 18.8259C2.45098 18.39 3.39471 17.8993 3.8261 17.6757Z" fill="#87B842"/>
</svg>
