<svg width="15" height="16" viewBox="0 0 15 16" fill="none" xmlns="http://www.w3.org/2000/svg">
<path fill-rule="evenodd" clip-rule="evenodd" d="M0 2.9375C0 2.24714 0.244078 1.65789 0.732233 1.16973C1.22039 0.681578 1.80964 0.4375 2.5 0.4375H4.375C5.06535 0.4375 5.65461 0.681578 6.14277 1.16973C6.63092 1.65789 6.875 2.24714 6.875 2.9375V4.8125C6.875 5.50285 6.63092 6.09211 6.14277 6.58027C5.65461 7.06842 5.06535 7.3125 4.375 7.3125H2.5C1.80964 7.3125 1.22039 7.06842 0.732233 6.58027C0.244078 6.09211 0 5.50285 0 4.8125V2.9375ZM8.125 2.9375C8.125 2.24714 8.36908 1.65789 8.85723 1.16973C9.34538 0.681578 9.93464 0.4375 10.625 0.4375H12.5C13.1903 0.4375 13.7796 0.681578 14.2678 1.16973C14.7559 1.65789 15 2.24714 15 2.9375V4.8125C15 5.50285 14.7559 6.09211 14.2678 6.58027C13.7796 7.06842 13.1903 7.3125 12.5 7.3125H10.625C9.93465 7.3125 9.34539 7.06842 8.85723 6.58027C8.36908 6.09211 8.125 5.50285 8.125 4.8125V2.9375ZM1.25 2.9375V4.8125C1.25 5.15768 1.37204 5.45231 1.61612 5.69638C1.86019 5.94046 2.15482 6.0625 2.5 6.0625H4.375C4.72018 6.0625 5.01481 5.94046 5.25888 5.69638C5.50296 5.45231 5.625 5.15768 5.625 4.8125V2.9375C5.625 2.59232 5.50296 2.29769 5.25888 2.05362C5.01481 1.80954 4.72018 1.6875 4.375 1.6875H2.5C2.15482 1.6875 1.86019 1.80954 1.61612 2.05362C1.37204 2.29769 1.25 2.59232 1.25 2.9375ZM9.375 2.9375V4.8125C9.375 5.15768 9.49704 5.45231 9.74112 5.69638C9.98519 5.94046 10.2798 6.0625 10.625 6.0625H12.5C12.8452 6.0625 13.1398 5.94046 13.3839 5.69638C13.628 5.45231 13.75 5.15768 13.75 4.8125V2.9375C13.75 2.59232 13.628 2.29769 13.3839 2.05362C13.1398 1.80954 12.8452 1.6875 12.5 1.6875H10.625C10.2798 1.6875 9.98519 1.80954 9.74112 2.05362C9.49704 2.29769 9.375 2.59232 9.375 2.9375ZM0 11.0625C0 10.3721 0.244078 9.78289 0.732233 9.29473C1.22039 8.80658 1.80964 8.5625 2.5 8.5625H4.375C5.06535 8.5625 5.65461 8.80658 6.14277 9.29473C6.63092 9.78289 6.875 10.3721 6.875 11.0625V12.9375C6.875 13.6278 6.63092 14.2171 6.14277 14.7053C5.65461 15.1934 5.06535 15.4375 4.375 15.4375H2.5C1.80964 15.4375 1.22039 15.1934 0.732232 14.7053C0.244077 14.2171 0 13.6278 0 12.9375V11.0625ZM8.125 11.0625C8.125 10.3721 8.36908 9.78289 8.85723 9.29473C9.34539 8.80658 9.93465 8.5625 10.625 8.5625H12.5C13.1903 8.5625 13.7796 8.80658 14.2678 9.29473C14.7559 9.78289 15 10.3721 15 11.0625V12.9375C15 13.6278 14.7559 14.2171 14.2678 14.7053C13.7796 15.1934 13.1903 15.4375 12.5 15.4375H10.625C9.93465 15.4375 9.34539 15.1934 8.85723 14.7053C8.36908 14.2171 8.125 13.6278 8.125 12.9375V11.0625ZM1.25 11.0625V12.9375C1.25 13.2827 1.37204 13.5773 1.61612 13.8214C1.86019 14.0655 2.15482 14.1875 2.5 14.1875H4.375C4.72018 14.1875 5.01481 14.0655 5.25888 13.8214C5.50296 13.5773 5.625 13.2827 5.625 12.9375V11.0625C5.625 10.7173 5.50296 10.4227 5.25888 10.1786C5.01481 9.93454 4.72018 9.8125 4.375 9.8125H2.5C2.15482 9.8125 1.86019 9.93454 1.61612 10.1786C1.37204 10.4227 1.25 10.7173 1.25 11.0625ZM9.375 11.0625V12.9375C9.375 13.2827 9.49704 13.5773 9.74112 13.8214C9.98519 14.0655 10.2798 14.1875 10.625 14.1875H12.5C12.8452 14.1875 13.1398 14.0655 13.3839 13.8214C13.628 13.5773 13.75 13.2827 13.75 12.9375V11.0625C13.75 10.7173 13.628 10.4227 13.3839 10.1786C13.1398 9.93454 12.8452 9.8125 12.5 9.8125H10.625C10.2798 9.8125 9.98519 9.93454 9.74112 10.1786C9.49704 10.4227 9.375 10.7173 9.375 11.0625Z" fill="#F55216"/>
</svg>
