<svg width="72" height="72" viewBox="0 0 72 72" fill="none" xmlns="http://www.w3.org/2000/svg">
<path opacity="0.4" d="M9 15.3389C9 13.6809 9 12.8519 9.12867 12.1612C9.69912 9.09936 12.0769 6.70419 15.1167 6.1296C15.8023 6 16.6254 6 18.2714 6H53.7285C55.3746 6 56.1975 6 56.8833 6.1296C59.9229 6.70419 62.301 9.09936 62.8713 12.1612C63 12.8519 63 13.6809 63 15.3389C63 16.9656 63 17.7789 62.9055 18.5331C62.4927 21.8262 60.7536 24.8034 58.0962 26.7662C57.4875 27.2158 56.7816 27.6108 55.3698 28.4008L47.6553 32.7177C41.9583 35.9058 39.1095 37.5 36 37.5C32.8905 37.5 30.0417 35.9058 24.3446 32.7177L16.6301 28.4008C15.2184 27.6108 14.5126 27.2158 13.904 26.7662C11.2466 24.8034 9.50742 21.8262 9.09456 18.5331C9 17.7789 9 16.9656 9 15.3389Z" fill="#87B842"/>
<path d="M9 15.3389C9 13.6809 9 12.8519 9.12867 12.1612C9.69912 9.09936 12.0769 6.70419 15.1167 6.1296C15.8023 6 16.6254 6 18.2714 6H53.7285C55.3746 6 56.1975 6 56.8833 6.1296C59.9229 6.70419 62.301 9.09936 62.8713 12.1612C63 12.8519 63 13.6809 63 15.3389C63 16.9656 63 17.7789 62.9055 18.5331C62.4927 21.8262 60.7536 24.8034 58.0962 26.7662C57.4875 27.2158 56.7816 27.6108 55.3698 28.4008L47.6553 32.7177C41.9583 35.9058 39.1095 37.5 36 37.5C32.8905 37.5 30.0417 35.9058 24.3446 32.7177L16.6301 28.4008C15.2184 27.6108 14.5126 27.2158 13.904 26.7662C11.2466 24.8034 9.50742 21.8262 9.09456 18.5331C9 17.7789 9 16.9656 9 15.3389Z" stroke="#87B842" stroke-width="1.54286" stroke-linecap="round"/>
<path d="M38.3322 40.9496L40.7079 45.7403C41.0319 46.4072 41.8959 47.0468 42.6249 47.1692L46.9308 47.8907C49.6845 48.3533 50.3325 50.3678 48.3483 52.3547L45.0006 55.73C44.4336 56.3018 44.1231 57.404 44.2986 58.1936L45.2571 62.3717C46.0131 65.6789 44.2716 66.9584 41.3694 65.2298L37.3335 62.8208C36.6045 62.3855 35.403 62.3855 34.6608 62.8208L30.6246 65.2298C27.736 66.9584 25.9812 65.6654 26.7371 62.3717L27.6955 58.1936C27.871 57.404 27.5605 56.3018 26.9935 55.73L23.6459 52.3547C21.6751 50.3678 22.3096 48.3533 25.0633 47.8907L29.3693 47.1692C30.0846 47.0468 30.9486 46.4072 31.2726 45.7403L33.6483 40.9496C34.9443 38.3501 37.05 38.3501 38.3322 40.9496Z" stroke="#87B842" stroke-width="1.54286" stroke-linecap="round" stroke-linejoin="round"/>
<path d="M24 15V18M36 15V24M48 15V18" stroke="#87B842" stroke-width="1.54286" stroke-linecap="round"/>
</svg>
