<svg width="24" height="25" viewBox="0 0 24 25" fill="none" xmlns="http://www.w3.org/2000/svg">
<path fill-rule="evenodd" clip-rule="evenodd" d="M13.3473 1.62066C13.9124 1.6712 14.4435 1.84365 14.8996 2.1838C15.2369 2.43537 15.4712 2.74331 15.6714 3.07682C15.8569 3.38587 16.0437 3.77119 16.2555 4.20829L16.6823 5.08859H21C21.5523 5.08859 22 5.53631 22 6.08859C22 6.64088 21.5523 7.08859 21 7.08859C14.9998 7.08859 9.00019 7.08859 3 7.08859C2.44772 7.08859 2 6.64088 2 6.08859C2 5.53631 2.44772 5.08859 3 5.08859H7.40976L7.76556 4.30805C7.97212 3.85485 8.15403 3.45571 8.33676 3.13543C8.53387 2.78996 8.76721 2.47026 9.10861 2.20835C9.57032 1.85415 10.1121 1.67458 10.6899 1.62198C11.1249 1.58238 11.5634 1.58783 12 1.58853C12.5108 1.58935 12.97 1.58691 13.3473 1.62066ZM9.60776 5.08859H14.4597C14.233 4.6212 14.088 4.32496 13.9566 4.10609C13.7643 3.78576 13.5339 3.64534 13.1691 3.61271C12.9098 3.58952 12.5719 3.58859 12.0345 3.58859C11.4837 3.58859 11.137 3.58955 10.8712 3.61374C10.4971 3.6478 10.2639 3.79357 10.0739 4.12655C9.94941 4.34476 9.81387 4.63686 9.60776 5.08859Z" fill="#CC1F28"/>
<path opacity="0.4" d="M19.5825 15.9943C19.5058 17.2475 19.4449 18.242 19.3202 19.0363C19.1922 19.851 18.9874 20.5294 18.5777 21.1228C18.2029 21.6657 17.7204 22.1239 17.1608 22.4682C16.5491 22.8446 15.8661 23.0092 15.0531 23.0879L8.92739 23.0878C8.1135 23.0089 7.42972 22.844 6.8176 22.4669C6.25763 22.122 5.77494 21.663 5.40028 21.1192C4.99073 20.5248 4.78656 19.8454 4.65957 19.0296C4.53574 18.2341 4.47623 17.2382 4.40122 15.9832L3.75 5.08789H20.25L19.5825 15.9943Z" fill="#CC1F28"/>
<path fill-rule="evenodd" clip-rule="evenodd" d="M8.25 12.6543C8.25 12.2401 8.58579 11.9043 9 11.9043H15C15.4142 11.9043 15.75 12.2401 15.75 12.6543C15.75 13.0685 15.4142 13.4043 15 13.4043H9C8.58579 13.4043 8.25 13.0685 8.25 12.6543Z" fill="#CC1F28"/>
<path fill-rule="evenodd" clip-rule="evenodd" d="M9.75 16.5723C9.75 16.1581 10.0858 15.8223 10.5 15.8223H13.5C13.9142 15.8223 14.25 16.1581 14.25 16.5723C14.25 16.9865 13.9142 17.3223 13.5 17.3223H10.5C10.0858 17.3223 9.75 16.9865 9.75 16.5723Z" fill="#CC1F28"/>
</svg>
