<svg width="19" height="18" viewBox="0 0 19 18" fill="none" xmlns="http://www.w3.org/2000/svg">
<path opacity="0.4" d="M17.166 4.5C17.166 2.84314 15.8228 1.5 14.166 1.5C12.5092 1.5 11.166 2.84314 11.166 4.5C11.166 6.15686 12.5092 7.5 14.166 7.5C15.8228 7.5 17.166 6.15686 17.166 4.5Z" fill="black"/>
<path opacity="0.4" d="M8.16602 13.5C8.16602 11.8432 6.82287 10.5 5.16602 10.5C3.50916 10.5 2.16602 11.8432 2.16602 13.5C2.16602 15.1568 3.50916 16.5 5.16602 16.5C6.82287 16.5 8.16602 15.1568 8.16602 13.5Z" fill="black"/>
<path opacity="0.4" d="M8.16602 4.5C8.16602 2.84317 6.82287 1.5 5.16602 1.5C3.50916 1.5 2.16602 2.84317 2.16602 4.5C2.16602 6.15683 3.50916 7.5 5.16602 7.5C6.82287 7.5 8.16602 6.15683 8.16602 4.5Z" fill="black"/>
<path d="M8.16602 13.5C8.16602 11.8432 6.82287 10.5 5.16602 10.5C3.50916 10.5 2.16602 11.8432 2.16602 13.5C2.16602 15.1568 3.50916 16.5 5.16602 16.5C6.82287 16.5 8.16602 15.1568 8.16602 13.5Z" stroke="black" stroke-width="1.5"/>
<path d="M8 5C8 3.34317 6.65686 2 5 2C3.34314 2 2 3.34317 2 5C2 6.65683 3.34314 8 5 8C6.65686 8 8 6.65683 8 5Z" stroke="black" stroke-width="1.5"/>
<path d="M17.166 4.5C17.166 2.84314 15.8228 1.5 14.166 1.5C12.5092 1.5 11.166 2.84314 11.166 4.5C11.166 6.15686 12.5092 7.5 14.166 7.5C15.8228 7.5 17.166 6.15686 17.166 4.5Z" stroke="black" stroke-width="1.5"/>
<path d="M17.166 13.5C17.166 11.8432 15.8228 10.5 14.166 10.5C12.5092 10.5 11.166 11.8432 11.166 13.5C11.166 15.1568 12.5092 16.5 14.166 16.5C15.8228 16.5 17.166 15.1568 17.166 13.5Z" fill="black" fill-opacity="0.4" stroke="black" stroke-width="1.5"/>
</svg>
