<svg width="25" height="24" viewBox="0 0 25 24" fill="none" xmlns="http://www.w3.org/2000/svg">
<path d="M20.915 21.75C22.2045 21.75 23.25 20.7045 23.25 19.415C23.25 19.0642 23.171 18.7184 23.0195 18.4033L22.9502 18.2705L14.6436 3.50391C14.2079 2.72944 13.3886 2.25 12.5 2.25C11.6669 2.25 10.8947 2.67143 10.4424 3.3623L10.3565 3.50391L2.0498 18.2705C1.85326 18.6199 1.75002 19.0141 1.75 19.415C1.75 20.7045 2.79546 21.75 4.08496 21.75H20.915ZM12.5 14.5C11.9477 14.5 11.5 14.0523 11.5 13.5V9C11.5 8.44771 11.9477 8 12.5 8C13.0523 8 13.5 8.44771 13.5 9V13.5C13.5 14.0523 13.0523 14.5 12.5 14.5ZM12.5 18.0098C11.9477 18.0098 11.5 17.5621 11.5 17.0098V17C11.5 16.4477 11.9477 16 12.5 16C13.0523 16 13.5 16.4477 13.5 17V17.0098C13.5 17.5621 13.0523 18.0098 12.5 18.0098Z" fill="#F55216"/>
</svg>
