<svg width="19" height="18" viewBox="0 0 19 18" fill="none" xmlns="http://www.w3.org/2000/svg">
<g clip-path="url(#clip0_32438_2252)">
<path d="M18.2861 9.16838C18.2861 8.43093 18.2263 7.89279 18.0968 7.33472H9.67578V10.6632H14.6187C14.5191 11.4904 13.9809 12.7361 12.785 13.5732L12.7683 13.6846L15.4308 15.7472L15.6153 15.7657C17.3094 14.201 18.2861 11.899 18.2861 9.16838Z" fill="#488EF7"/>
<path d="M9.67451 17.9381C12.0961 17.9381 14.1291 17.1408 15.614 15.7656L12.7838 13.5731C12.0264 14.1013 11.0099 14.47 9.67451 14.47C7.30271 14.47 5.28966 12.9055 4.57206 10.7429L4.46688 10.7519L1.69832 12.8945L1.66211 12.9951C3.13701 15.925 6.16658 17.9381 9.67451 17.9381Z" fill="#34A853"/>
<path d="M4.57366 10.743C4.38432 10.1849 4.27474 9.58692 4.27474 8.96908C4.27474 8.35117 4.38432 7.75325 4.5637 7.19519L4.55869 7.07633L1.75543 4.89929L1.66371 4.94292C1.05583 6.15874 0.707031 7.52406 0.707031 8.96908C0.707031 10.4141 1.05583 11.7793 1.66371 12.9952L4.57366 10.743Z" fill="#FFBD14"/>
<path d="M9.67451 3.46802C11.3587 3.46802 12.4947 4.19551 13.1425 4.80346L15.6738 2.33196C14.1192 0.886947 12.0961 0 9.67451 0C6.16657 0 3.13701 2.01305 1.66211 4.94292L4.5621 7.19519C5.28966 5.03265 7.3027 3.46802 9.67451 3.46802Z" fill="#EB4335"/>
</g>
<defs>
<clipPath id="clip0_32438_2252">
<rect width="18" height="18" fill="white" transform="translate(0.5)"/>
</clipPath>
</defs>
</svg>
