<svg width="18" height="18" viewBox="0 0 18 18" fill="none" xmlns="http://www.w3.org/2000/svg">
<rect x="0.366211" y="0.4375" width="17.125" height="17.125" rx="8.5625" fill="#87B842"/>
<path d="M13.1503 6.17202C13.333 6.64492 13.0767 6.96869 12.5807 7.28762C12.1804 7.54495 11.6704 7.82372 11.13 8.30033C10.123 9.18848 9.27185 10.26 8.50256 11.3561C8.35695 11.5635 8.21301 11.7724 8.07717 11.9864C7.90241 12.2629 7.58823 12.4303 7.25134 12.4261C6.91438 12.4219 6.60488 12.2469 6.43769 11.966C5.9113 11.0816 5.53676 10.8586 5.45203 10.8171C4.99631 10.7493 4.64746 10.3711 4.64746 9.91458C4.64746 9.4102 5.0734 9.0013 5.59882 9.0013C5.96988 9.015 6.31433 9.16073 6.62007 9.36619C6.81535 9.49741 7.02222 9.67097 7.23739 9.89942C8.01148 8.84358 8.85901 7.82282 9.84271 6.95523C10.4592 6.41151 11.1719 5.90255 11.9274 5.63346C12.42 5.458 12.9675 5.69912 13.1503 6.17202Z" fill="black"/>
</svg>
