<svg width="20" height="21" viewBox="0 0 20 21" fill="none" xmlns="http://www.w3.org/2000/svg">
<g clip-path="url(#clip0_32438_4739)">
<mask id="mask0_32438_4739" style="mask-type:luminance" maskUnits="userSpaceOnUse" x="0" y="0" width="20" height="21">
<path d="M0 0.5H20V20.5H0V0.5Z" fill="white"/>
</mask>
<g mask="url(#mask0_32438_4739)">
<mask id="mask1_32438_4739" style="mask-type:luminance" maskUnits="userSpaceOnUse" x="0" y="0" width="20" height="21">
<path d="M0 0.5H20V20.5H0V0.5Z" fill="white"/>
</mask>
<g mask="url(#mask1_32438_4739)">
<path fill-rule="evenodd" clip-rule="evenodd" d="M11.875 4.875C11.5298 4.875 11.25 4.59518 11.25 4.25C11.25 3.90483 11.5298 3.625 11.875 3.625H16.25C16.2911 3.625 16.3317 3.629 16.3719 3.63701C16.4122 3.64502 16.4513 3.65687 16.4892 3.67257C16.5271 3.68828 16.5631 3.70753 16.5972 3.73033C16.6313 3.75313 16.6629 3.77904 16.6919 3.80806C16.721 3.83708 16.7469 3.86865 16.7697 3.90277C16.7925 3.93689 16.8117 3.97291 16.8274 4.01082C16.8431 4.04874 16.855 4.08782 16.863 4.12807C16.871 4.16832 16.875 4.20896 16.875 4.25V8.625C16.875 8.97017 16.5952 9.25 16.25 9.25C15.9048 9.25 15.625 8.97017 15.625 8.625V5.75778L5.25884 16.125H8.125C8.47017 16.125 8.75 16.4048 8.75 16.75C8.75 17.0952 8.47017 17.375 8.125 17.375H3.75C3.70896 17.375 3.66832 17.371 3.62807 17.363C3.58782 17.355 3.54874 17.3431 3.51082 17.3274C3.47291 17.3117 3.43689 17.2925 3.40277 17.2697C3.36865 17.2469 3.33708 17.221 3.30806 17.1919C3.27904 17.1629 3.25313 17.1313 3.23033 17.0972C3.20753 17.0631 3.18828 17.0271 3.17257 16.9892C3.15687 16.9513 3.14502 16.9122 3.13701 16.8719C3.129 16.8317 3.125 16.7911 3.125 16.75V12.375C3.125 12.0298 3.40483 11.75 3.75 11.75C4.09518 11.75 4.375 12.0298 4.375 12.375V15.2411L14.74 4.875H11.875Z" fill="#F55216"/>
</g>
</g>
</g>
<defs>
<clipPath id="clip0_32438_4739">
<rect width="20" height="20" fill="white" transform="translate(0 0.5)"/>
</clipPath>
</defs>
</svg>
