<svg width="46" height="46" viewBox="0 0 46 46" fill="none" xmlns="http://www.w3.org/2000/svg">
<circle cx="23" cy="23" r="22" fill="#87B842" stroke="#2F2F2F" stroke-width="2"/>
<path opacity="0.4" d="M14 22.9896V25.5C14 28.7998 14 30.4497 15.0251 31.4749C16.0502 32.5 17.7002 32.5 21 32.5H25C28.2998 32.5 29.9497 32.5 30.9749 31.4749C32 30.4497 32 28.7998 32 25.5V22.9896C32 21.3083 32 20.4677 31.6441 19.7401C31.2882 19.0124 30.6247 18.4963 29.2976 17.4641L27.2976 15.9085C25.2331 14.3028 24.2009 13.5 23 13.5C21.7991 13.5 20.7669 14.3028 18.7024 15.9085L16.7024 17.4641C15.3753 18.4963 14.7118 19.0124 14.3559 19.7401C14 20.4677 14 21.3083 14 22.9896Z" fill="#090809"/>
<path d="M14 22.9896V25.5C14 28.7998 14 30.4497 15.0251 31.4749C16.0502 32.5 17.7002 32.5 21 32.5H25C28.2998 32.5 29.9497 32.5 30.9749 31.4749C32 30.4497 32 28.7998 32 25.5V22.9896C32 21.3083 32 20.4677 31.6441 19.7401C31.2882 19.0124 30.6247 18.4963 29.2976 17.4641L27.2976 15.9085C25.2331 14.3028 24.2009 13.5 23 13.5C21.7991 13.5 20.7669 14.3028 18.7024 15.9085L16.7024 17.4641C15.3753 18.4963 14.7118 19.0124 14.3559 19.7401C14 20.4677 14 21.3083 14 22.9896Z" stroke="#090809" stroke-width="1.5" stroke-linecap="round" stroke-linejoin="round"/>
<path d="M26 28C25.2005 28.6224 24.1502 29 23 29C21.8497 29 20.7995 28.6224 20 28" stroke="#090809" stroke-width="1.5" stroke-linecap="round" stroke-linejoin="round"/>
</svg>
