<svg width="25" height="24" viewBox="0 0 25 24" fill="none" xmlns="http://www.w3.org/2000/svg">
<path d="M3.125 11.9896V14.5C3.125 17.7998 3.125 19.4497 4.15013 20.4749C5.17525 21.5 6.82517 21.5 10.125 21.5H14.125C17.4248 21.5 19.0747 21.5 20.0999 20.4749C21.125 19.4497 21.125 17.7998 21.125 14.5V11.9896C21.125 10.3083 21.125 9.46773 20.7691 8.74005C20.4132 8.01237 19.7497 7.49628 18.4226 6.46411L16.4226 4.90855C14.3581 3.30285 13.3259 2.5 12.125 2.5C10.9241 2.5 9.89189 3.30285 7.82742 4.90855L5.82741 6.46411C4.50033 7.49628 3.83679 8.01237 3.4809 8.74005C3.125 9.46773 3.125 10.3083 3.125 11.9896Z" stroke="#BABABA" stroke-width="1.5" stroke-linecap="round" stroke-linejoin="round"/>
<path d="M15.125 17C14.3255 17.6224 13.2752 18 12.125 18C10.9747 18 9.92453 17.6224 9.125 17" stroke="#BABABA" stroke-width="1.5" stroke-linecap="round" stroke-linejoin="round"/>
</svg>
