<svg width="24" height="25" viewBox="0 0 24 25" fill="none" xmlns="http://www.w3.org/2000/svg">
<path d="M12 1.75C17.9371 1.75 22.75 6.56294 22.75 12.5C22.75 18.4371 17.9371 23.25 12 23.25C6.06294 23.25 1.25 18.4371 1.25 12.5C1.25 6.56294 6.06294 1.75 12 1.75ZM12 11C11.4477 11 11 11.4477 11 12V16.5C11 17.0523 11.4477 17.5 12 17.5C12.5523 17.5 13 17.0523 13 16.5V12C13 11.4477 12.5523 11 12 11ZM12 7.49805C11.4477 7.49805 11 7.94576 11 8.49805V8.50781C11 9.0601 11.4477 9.50781 12 9.50781C12.5523 9.50781 13 9.0601 13 8.50781V8.49805C13 7.94576 12.5523 7.49805 12 7.49805Z" fill="#87B842"/>
</svg>
