<svg width="41" height="41" viewBox="0 0 41 41" fill="none" xmlns="http://www.w3.org/2000/svg">
<rect x="0.5" y="0.4375" width="40" height="40" rx="20" fill="#181818"/>
<path d="M12.75 30.4375C12.75 26.1573 16.2198 22.6875 20.5 22.6875C24.7802 22.6875 28.25 26.1573 28.25 30.4375C28.25 30.8517 27.9142 31.1875 27.5 31.1875H13.5C13.0858 31.1875 12.75 30.8517 12.75 30.4375Z" fill="#F55216"/>
<path fill-rule="evenodd" clip-rule="evenodd" d="M20.5 9.6875C20.9142 9.6875 21.25 10.0233 21.25 10.4375V11.6875H25C26.5188 11.6875 27.75 12.9187 27.75 14.4375V16.4375C27.75 19.0609 25.6234 21.1875 23 21.1875H18C15.3767 21.1875 13.25 19.0609 13.25 16.4375V14.4375C13.25 12.9187 14.4812 11.6875 16 11.6875H19.75V10.4375C19.75 10.0233 20.0858 9.6875 20.5 9.6875ZM18 14.9375C17.4477 14.9375 17 15.3852 17 15.9375C17 16.4898 17.4477 16.9375 18 16.9375H18.01C18.5623 16.9375 19.01 16.4898 19.01 15.9375C19.01 15.3852 18.5623 14.9375 18.01 14.9375H18ZM22.99 14.9375C22.4377 14.9375 21.99 15.3852 21.99 15.9375C21.99 16.4898 22.4377 16.9375 22.99 16.9375H23C23.5523 16.9375 24 16.4898 24 15.9375C24 15.3852 23.5523 14.9375 23 14.9375H22.99Z" fill="#F55216"/>
</svg>
