<svg width="20" height="21" viewBox="0 0 20 21" fill="none" xmlns="http://www.w3.org/2000/svg">
<path d="M15.833 8.5172C15.833 10.9673 14.4581 12.7742 12.4582 13.8333L12.2156 15.2888C12.1151 15.8915 11.5937 16.3333 10.9826 16.3333H8.10042C7.48937 16.3333 6.96787 15.8915 6.86742 15.2888L6.62484 13.8333C4.62494 12.7742 3.33301 10.9673 3.33301 8.5172C3.33301 5.00988 6.13122 2.16663 9.58301 2.16663C10.0111 2.16663 10.4291 2.21036 10.833 2.29366" stroke="#87B842" stroke-width="1.5" stroke-linecap="round" stroke-linejoin="round"/>
<path d="M13.7497 2.16663L13.9646 2.74748C14.2464 3.50914 14.3873 3.88998 14.6652 4.16778C14.943 4.4456 15.3238 4.58652 16.0855 4.86836L16.6663 5.08329L16.0855 5.29823C15.3238 5.58007 14.943 5.72099 14.6652 5.9988C14.3873 6.27661 14.2464 6.65744 13.9646 7.4191L13.7497 7.99996L13.5348 7.4191C13.2529 6.65744 13.112 6.27661 12.8342 5.9988C12.5563 5.72099 12.1755 5.58007 11.4138 5.29823L10.833 5.08329L11.4138 4.86836C12.1755 4.58652 12.5563 4.4456 12.8342 4.16778C13.112 3.88998 13.2529 3.50914 13.5348 2.74748L13.7497 2.16663Z" stroke="#87B842" stroke-width="1.5" stroke-linecap="round" stroke-linejoin="round"/>
<path d="M11.2503 16.3334V18C11.2503 18.4603 10.8772 18.8334 10.417 18.8334H8.75033C8.29009 18.8334 7.91699 18.4603 7.91699 18V16.3334" stroke="#87B842" stroke-width="1.5" stroke-linecap="round" stroke-linejoin="round"/>
</svg>
