<svg width="40" height="40" viewBox="0 0 40 40" fill="none" xmlns="http://www.w3.org/2000/svg">
<rect width="40" height="40" rx="20" fill="#FFB74D" fill-opacity="0.3"/>
<path d="M24 13.5C24 14.3284 23.3284 15 22.5 15C21.6716 15 21 14.3284 21 13.5C21 12.6716 21.6716 12 22.5 12C23.3284 12 24 12.6716 24 13.5Z" stroke="#FFB74D" stroke-width="1.5"/>
<path d="M18.7259 16.2136C16.2259 18.7136 15 25.6324 15 29.0003M18.7259 16.2136C16.8772 14.9658 16.4518 12.6911 17.751 11M18.7259 16.2136L21.3725 18M21.3725 18L23.9835 19.7994C24.507 20.1603 24.5653 20.9117 24.1036 21.3489L22.3602 23M21.3725 18C20.5697 19.0391 20.0164 20.0207 19.6026 20.8942C19.1636 21.8209 18.9441 22.2843 18.9845 22.8132M23.0002 29.0003C22.0268 27.8647 21.0257 26.3 20.0502 24.8578C19.3666 23.8474 19.0249 23.3422 18.9845 22.8132M18.9845 22.8132L16 22" stroke="#FFB74D" stroke-width="1.5" stroke-linecap="round" stroke-linejoin="round"/>
</svg>
