<svg width="41" height="40" viewBox="0 0 41 40" fill="none" xmlns="http://www.w3.org/2000/svg">
<rect x="0.75" width="40" height="40" rx="20" fill="#87B842" fill-opacity="0.3"/>
<mask id="mask0_32438_474" style="mask-type:luminance" maskUnits="userSpaceOnUse" x="8" y="8" width="25" height="24">
<path d="M8.75 8H32.75V32H8.75V8Z" fill="white"/>
</mask>
<g mask="url(#mask0_32438_474)">
<path fill-rule="evenodd" clip-rule="evenodd" d="M24.5 23C24.8275 23 25.1389 23.0781 25.4344 23.2343C25.7057 23.3778 25.9429 23.5765 26.1462 23.8307C26.5487 24.3338 26.75 24.9319 26.75 25.625C26.75 26.3181 26.5487 26.9162 26.1462 27.4193C25.9429 27.6734 25.7057 27.8722 25.4344 28.0157C25.1497 28.1662 24.8502 28.2442 24.5358 28.2497C24.5002 28.4727 24.4482 28.6894 24.3799 28.8996C24.2318 29.3552 24.0154 29.7551 23.7305 30.0995C23.4282 30.4649 23.0668 30.7462 22.6463 30.9433C22.2103 31.1478 21.7345 31.25 21.2188 31.25H15.0312C14.5156 31.25 14.0397 31.1478 13.6037 30.9433C13.1832 30.7462 12.8219 30.4649 12.5195 30.0995C12.2346 29.7551 12.0181 29.3552 11.8701 28.8996C11.8018 28.6894 11.7498 28.4727 11.7143 28.2497C11.3998 28.2442 11.1003 28.1662 10.8156 28.0157C10.5443 27.8722 10.3071 27.6734 10.1038 27.4193C9.70125 26.9162 9.5 26.3181 9.5 25.625C9.5 24.9319 9.70125 24.3338 10.1038 23.8307C10.3071 23.5765 10.5443 23.3778 10.8156 23.2343C11.1111 23.0781 11.4225 23 11.75 23C12.1642 23 12.5 23.3358 12.5 23.75C12.5 24.1642 12.1642 24.5 11.75 24.5C11.5762 24.5 11.4178 24.5892 11.275 24.7677C11.0917 24.9969 11 25.2827 11 25.625C11 25.9673 11.0917 26.2531 11.275 26.4823C11.4178 26.6608 11.5762 26.75 11.75 26.75H24.5C24.6739 26.75 24.8322 26.6608 24.975 26.4823C25.1583 26.2531 25.25 25.9673 25.25 25.625C25.25 25.2827 25.1583 24.9969 24.975 24.7677C24.8322 24.5892 24.6739 24.5 24.5 24.5C24.0858 24.5 23.75 24.1642 23.75 23.75C23.75 23.3358 24.0858 23 24.5 23ZM23.0109 28.25H13.2391C13.3222 28.5945 13.4675 28.8922 13.6752 29.1433C14.0099 29.5478 14.4619 29.75 15.0312 29.75H21.2188C21.7881 29.75 22.2401 29.5478 22.5748 29.1433C22.7825 28.8922 22.9278 28.5945 23.0109 28.25Z" fill="#87B842"/>
<path fill-rule="evenodd" clip-rule="evenodd" d="M19.9602 12.5051C19.5488 12.5529 19.254 12.9253 19.3019 13.3367L19.6407 16.2501H16.4375C15.7137 16.2501 15.0357 16.3442 14.4035 16.5323C13.7407 16.7296 13.1619 17.0203 12.667 17.4044C12.137 17.8159 11.7298 18.3137 11.4455 18.8977C11.1677 19.4685 11.0198 20.0974 11.0019 20.7842C10.6416 20.8527 10.324 21.0244 10.0492 21.2993C9.68306 21.6654 9.5 22.1073 9.5 22.6251C9.5 23.1428 9.68306 23.5847 10.0492 23.9509C10.4153 24.317 10.8572 24.5001 11.375 24.5001H13.6893L14.8367 25.6475C15.0198 25.8307 15.2409 25.9224 15.5 25.9224C15.7591 25.9224 15.9801 25.8308 16.163 25.6478L17.3107 24.5001H24.875C25.3928 24.5001 25.8347 24.317 26.2008 23.9509C26.5669 23.5848 26.75 23.1429 26.75 22.6251C26.75 22.1073 26.5669 21.6654 26.2008 21.2992C25.9259 21.0243 25.6083 20.8526 25.2479 20.7842C25.2288 20.1014 25.081 19.4757 24.8047 18.907C24.5206 18.322 24.1137 17.8232 23.5841 17.4105C23.089 17.0247 22.5102 16.7326 21.8476 16.5343C21.6167 16.4651 21.3798 16.4086 21.1368 16.3647C21.147 16.2992 21.1486 16.2311 21.1406 16.162L20.7919 13.1634C20.744 12.752 20.3717 12.4572 19.9602 12.5051ZM23.7456 20.7501C23.7025 19.8418 23.3413 19.1229 22.662 18.5936C22.3151 18.3232 21.9002 18.1158 21.4175 17.9713C20.9249 17.8238 20.3899 17.7501 19.8125 17.7501H16.4375C15.8593 17.7501 15.324 17.8234 14.8314 17.97C14.3484 18.1137 13.9336 18.3202 13.5869 18.5893C12.9058 19.118 12.5448 19.8382 12.5039 20.7501H23.7456ZM24.875 23.0001C24.9785 23.0001 25.0669 22.9635 25.1402 22.8902C25.2134 22.817 25.25 22.7286 25.25 22.6251C25.25 22.5215 25.2134 22.4331 25.1402 22.3599C25.0669 22.2867 24.9785 22.2501 24.875 22.2501H11.375C11.2714 22.2501 11.1831 22.2867 11.1098 22.3599C11.0366 22.4331 11 22.5215 11 22.6251C11 22.7286 11.0366 22.817 11.1098 22.8902C11.1831 22.9635 11.2714 23.0001 11.375 23.0001H13.8452C13.9942 23.0001 14.1375 23.0287 14.2751 23.0857C14.4128 23.1427 14.5344 23.224 14.64 23.3295L15.5 24.1894L16.3603 23.3292C16.4657 23.2239 16.5872 23.1427 16.7249 23.0857C16.8625 23.0287 17.0059 23.0001 17.1552 23.0001H24.875Z" fill="#87B842"/>
<path fill-rule="evenodd" clip-rule="evenodd" d="M30.532 12.5042C30.1201 12.4607 29.7508 12.7593 29.7073 13.1712L28.028 29.0561C28.0134 29.2518 27.9341 29.4164 27.7903 29.5499C27.6464 29.6833 27.4764 29.7501 27.2802 29.7501H20.75C20.3358 29.7501 20 30.0859 20 30.5001C20 30.9143 20.3358 31.2501 20.75 31.2501H27.2802C27.8689 31.2501 28.379 31.0498 28.8106 30.6494C29.2391 30.2518 29.4765 29.7621 29.5229 29.1805L31.199 13.3289C31.2425 12.917 30.9439 12.5478 30.532 12.5042Z" fill="#87B842"/>
<path fill-rule="evenodd" clip-rule="evenodd" d="M29.6633 9.25826C29.5298 8.86615 29.1037 8.65649 28.7116 8.78997L26.5085 9.53997C26.4491 9.56017 26.3932 9.58738 26.3407 9.6216C26.2882 9.65583 26.2407 9.696 26.1983 9.74213C26.1558 9.78825 26.1197 9.8389 26.09 9.89408C26.0602 9.94925 26.0378 10.0072 26.0226 10.0681L25.2726 13.0681C25.1721 13.4699 25.4164 13.8771 25.8183 13.9776C26.2201 14.078 26.6273 13.8337 26.7278 13.4319L27.3787 10.8283L29.195 10.2099C29.5871 10.0765 29.7968 9.65037 29.6633 9.25826Z" fill="#87B842"/>
<path fill-rule="evenodd" clip-rule="evenodd" d="M18.5 13.25C18.5 13.6642 18.8358 14 19.25 14H31.25C31.6642 14 32 13.6642 32 13.25C32 12.8358 31.6642 12.5 31.25 12.5H19.25C18.8358 12.5 18.5 12.8358 18.5 13.25Z" fill="#87B842"/>
</g>
</svg>
