<svg width="40" height="40" viewBox="0 0 40 40" fill="none" xmlns="http://www.w3.org/2000/svg">
<rect width="40" height="40" rx="20" fill="#4FC3F7" fill-opacity="0.3"/>
<mask id="mask0_32438_494" style="mask-type:luminance" maskUnits="userSpaceOnUse" x="8" y="8" width="24" height="24">
<path d="M8 8H32V32H8V8Z" fill="white"/>
</mask>
<g mask="url(#mask0_32438_494)">
<path fill-rule="evenodd" clip-rule="evenodd" d="M22.418 12.7804C22.1725 13.4951 21.9943 14.2212 21.8833 14.9588C21.6506 16.5072 21.7719 17.7271 22.2472 18.6183C22.7697 19.5981 23.6856 20.1848 24.9949 20.3784C26.4012 20.5864 27.501 20.2239 28.2944 19.2909C28.9316 18.5416 29.3707 17.3649 29.6118 15.7608C29.7562 14.8003 29.7872 13.9047 29.7048 13.074C29.6245 12.2644 29.4401 11.5482 29.1516 10.9254C28.8569 10.2892 28.4705 9.78416 27.9924 9.41031C27.4919 9.01898 26.9322 8.80087 26.3135 8.75598C25.7114 8.71231 25.1302 8.90785 24.5699 9.34261C24.1187 9.69273 23.7006 10.1859 23.3156 10.8221C22.9687 11.3955 22.6695 12.0483 22.418 12.7804ZM23.3666 15.182C23.464 14.5344 23.6207 13.8962 23.8366 13.2677C24.0533 12.6368 24.3075 12.0805 24.599 11.5987C24.8879 11.1211 25.1848 10.7641 25.4895 10.5277C25.7468 10.328 25.9853 10.2361 26.2049 10.252C26.52 10.2749 26.8079 10.3882 27.0685 10.592C27.3566 10.8172 27.5972 11.1385 27.7904 11.5557C28.0079 12.0253 28.1484 12.5807 28.2121 13.2221C28.2822 13.9287 28.2544 14.7006 28.1285 15.5379C27.9298 16.86 27.6042 17.7871 27.1517 18.3191C26.9396 18.5685 26.6896 18.7408 26.4016 18.8359C26.0749 18.9437 25.6792 18.9633 25.2144 18.8946C24.4039 18.7747 23.856 18.4473 23.5707 17.9125C23.2512 17.3133 23.1831 16.4031 23.3666 15.182ZM17.7528 23.1188C18.2281 22.2276 18.3494 21.0078 18.1167 19.4594C18.0058 18.7223 17.8269 17.9954 17.5801 17.2789C17.3277 16.5463 17.0276 15.8928 16.6796 15.3184C16.2938 14.6815 15.8756 14.1883 15.4249 13.8386C14.8636 13.403 14.2824 13.2091 13.6813 13.2568C13.0638 13.306 12.5056 13.526 12.0068 13.9169C11.5289 14.2913 11.1427 14.7959 10.8484 15.4306C10.5598 16.0527 10.3754 16.7679 10.295 17.5763C10.2125 18.4059 10.2434 19.3008 10.3877 20.2612C10.6288 21.8653 11.068 23.042 11.7053 23.7913C12.4988 24.7243 13.5985 25.0869 15.0046 24.8789C16.3141 24.6853 17.2302 24.0986 17.7528 23.1188ZM16.1619 17.7675C16.3789 18.3974 16.536 19.0357 16.6333 19.6823C16.8168 20.9034 16.7488 21.8137 16.4293 22.4129C16.144 22.9478 15.5959 23.2752 14.7851 23.395C14.3204 23.4638 13.9248 23.4442 13.5981 23.3363C13.3101 23.2412 13.0601 23.0689 12.848 22.8195C12.3954 22.2874 12.0697 21.3603 11.8711 20.0383C11.7453 19.2013 11.7175 18.4301 11.7876 17.7247C11.8513 17.0847 11.9918 16.5303 12.2091 16.0617C12.4023 15.6451 12.6433 15.3238 12.9319 15.0976C13.1936 14.8925 13.4831 14.7774 13.8003 14.7521C14.0151 14.7351 14.2501 14.8256 14.5054 15.0237C14.8097 15.2598 15.1068 15.6171 15.3966 16.0956C15.6892 16.5786 15.9443 17.1359 16.1619 17.7675ZM20.7697 22.6266C20.8679 21.5834 21.2841 20.9567 22.0182 20.7465C22.2885 20.6692 22.6074 20.6566 22.9748 20.7087C23.1591 20.7349 23.4413 20.795 23.8215 20.8888C24.1056 20.959 24.3181 21.0076 24.4591 21.0345C24.5254 21.0473 24.6243 21.0657 24.7556 21.0899C25.1786 21.1678 25.4868 21.2331 25.6802 21.2859C26.0474 21.3862 26.3466 21.5171 26.5779 21.6787C27.2275 22.1329 27.459 22.8398 27.2725 23.7996C27.1811 24.2696 27.0047 24.7061 26.7432 25.1092C26.4954 25.4913 26.1892 25.8164 25.8246 26.0846C25.4605 26.3525 25.0693 26.541 24.6509 26.65C24.2062 26.766 23.7695 26.7821 23.3409 26.6982C22.914 26.6146 22.5216 26.4356 22.1639 26.1614C21.8329 25.9077 21.553 25.5888 21.3243 25.2047C21.1043 24.8353 20.9463 24.4302 20.8504 23.9895C20.7532 23.5428 20.7263 23.0884 20.7697 22.6266ZM22.2631 22.7672C22.2045 23.3904 22.3212 23.947 22.6131 24.4371C22.8782 24.8824 23.217 25.1455 23.6294 25.2263C23.8339 25.2663 24.0483 25.2571 24.2724 25.1986C24.5051 25.138 24.7262 25.0306 24.9357 24.8764C25.1532 24.7164 25.3362 24.5219 25.4847 24.293C25.6406 24.0527 25.7457 23.7928 25.8 23.5134C25.8423 23.2956 25.8468 23.1336 25.8133 23.0274C25.799 22.9821 25.7673 22.9423 25.7184 22.9081C25.6294 22.8459 25.485 22.7875 25.2852 22.7329C25.1325 22.6913 24.8655 22.6353 24.484 22.5651C24.3491 22.5403 24.2468 22.5212 24.1771 22.5078C24.0101 22.4758 23.7717 22.4216 23.4619 22.3451C22.8973 22.2057 22.5536 22.1535 22.4309 22.1886C22.419 22.192 22.4072 22.2032 22.3955 22.2222C22.3317 22.3256 22.2876 22.5073 22.2631 22.7672ZM19.2303 27.1267C19.2737 27.5887 19.2469 28.043 19.1496 28.4897C19.0537 28.9304 18.8957 29.3355 18.6757 29.7049C18.4469 30.089 18.167 30.4079 17.836 30.6615C17.4783 30.9357 17.086 31.1146 16.6591 31.1982C16.2305 31.2821 15.7938 31.266 15.3491 31.15C14.9307 31.041 14.5394 30.8525 14.1754 30.5846C13.8108 30.3164 13.5046 29.9913 13.2568 29.6092C12.9953 29.2061 12.8189 28.7696 12.7275 28.2996C12.5409 27.3396 12.7726 26.6326 13.4225 26.1785C13.6538 26.0169 13.9531 25.8861 14.3204 25.7859C14.5139 25.7331 14.8222 25.6679 15.2453 25.5901C15.3763 25.566 15.4749 25.5476 15.5411 25.535C15.6823 25.508 15.8951 25.4594 16.1796 25.3892C16.5596 25.2954 16.8418 25.2355 17.026 25.2093C17.3933 25.1572 17.712 25.1698 17.9822 25.2472C18.7161 25.4573 19.1321 26.0839 19.2303 27.1267ZM17.7369 27.2672C17.7124 27.0075 17.6684 26.826 17.6047 26.7227C17.593 26.7038 17.5812 26.6926 17.5694 26.6892C17.4467 26.6542 17.1033 26.7063 16.5391 26.8455C16.2288 26.9221 15.9899 26.9764 15.8226 27.0083C15.753 27.0217 15.651 27.0407 15.5165 27.0653C15.135 27.1355 14.8678 27.1914 14.715 27.233C14.5151 27.2876 14.3706 27.3459 14.2816 27.4081C14.2327 27.4423 14.201 27.4821 14.1867 27.5273C14.1532 27.6335 14.1576 27.7956 14.2 28.0134C14.2543 28.2928 14.3594 28.5527 14.5153 28.793C14.6637 29.0219 14.8467 29.2164 15.0643 29.3764C15.2738 29.5306 15.4949 29.638 15.7276 29.6986C15.9517 29.7571 16.1661 29.7663 16.3706 29.7263C16.783 29.6455 17.1218 29.3825 17.387 28.9373C17.6789 28.4473 17.7955 27.8905 17.7369 27.2672Z" fill="#4FC3F7"/>
</g>
</svg>
