<svg width="41" height="40" viewBox="0 0 41 40" fill="none" xmlns="http://www.w3.org/2000/svg">
<rect x="0.25" width="40" height="40" rx="20" fill="#CC1F28" fill-opacity="0.3"/>
<path d="M12.75 24.5C12.75 23.3447 12.75 22.767 13.01 22.3426C13.1556 22.1052 13.3552 21.9055 13.5926 21.76C14.017 21.5 14.5947 21.5 15.75 21.5C16.9053 21.5 17.483 21.5 17.9074 21.76C18.1448 21.9055 18.3444 22.1052 18.49 22.3426C18.75 22.767 18.75 23.3447 18.75 24.5C18.75 25.6553 18.75 26.233 18.49 26.6574C18.3444 26.8948 18.1448 27.0945 17.9074 27.24C17.483 27.5 16.9053 27.5 15.75 27.5C14.5947 27.5 14.017 27.5 13.5926 27.24C13.3552 27.0945 13.1556 26.8948 13.01 26.6574C12.75 26.233 12.75 25.6553 12.75 24.5Z" stroke="#CC1F28" stroke-width="1.5"/>
<path d="M21.75 24.5C21.75 23.3447 21.75 22.767 22.01 22.3426C22.1555 22.1052 22.3552 21.9055 22.5926 21.76C23.017 21.5 23.5947 21.5 24.75 21.5C25.9053 21.5 26.483 21.5 26.9074 21.76C27.1448 21.9055 27.3445 22.1052 27.49 22.3426C27.75 22.767 27.75 23.3447 27.75 24.5C27.75 25.6553 27.75 26.233 27.49 26.6574C27.3445 26.8948 27.1448 27.0945 26.9074 27.24C26.483 27.5 25.9053 27.5 24.75 27.5C23.5947 27.5 23.017 27.5 22.5926 27.24C22.3552 27.0945 22.1555 26.8948 22.01 26.6574C21.75 26.233 21.75 25.6553 21.75 24.5Z" stroke="#CC1F28" stroke-width="1.5"/>
<path d="M12.75 15.5C12.75 14.3447 12.75 13.767 13.01 13.3426C13.1556 13.1052 13.3552 12.9056 13.5926 12.76C14.017 12.5 14.5947 12.5 15.75 12.5C16.9053 12.5 17.483 12.5 17.9074 12.76C18.1448 12.9056 18.3444 13.1052 18.49 13.3426C18.75 13.767 18.75 14.3447 18.75 15.5C18.75 16.6553 18.75 17.233 18.49 17.6574C18.3444 17.8948 18.1448 18.0944 17.9074 18.24C17.483 18.5 16.9053 18.5 15.75 18.5C14.5947 18.5 14.017 18.5 13.5926 18.24C13.3552 18.0944 13.1556 17.8948 13.01 17.6574C12.75 17.233 12.75 16.6553 12.75 15.5Z" stroke="#CC1F28" stroke-width="1.5"/>
<path d="M21.75 15.5C21.75 14.3447 21.75 13.767 22.01 13.3426C22.1555 13.1052 22.3552 12.9056 22.5926 12.76C23.017 12.5 23.5947 12.5 24.75 12.5C25.9053 12.5 26.483 12.5 26.9074 12.76C27.1448 12.9056 27.3445 13.1052 27.49 13.3426C27.75 13.767 27.75 14.3447 27.75 15.5C27.75 16.6553 27.75 17.233 27.49 17.6574C27.3445 17.8948 27.1448 18.0944 26.9074 18.24C26.483 18.5 25.9053 18.5 24.75 18.5C23.5947 18.5 23.017 18.5 22.5926 18.24C22.3552 18.0944 22.1555 17.8948 22.01 17.6574C21.75 17.233 21.75 16.6553 21.75 15.5Z" stroke="#CC1F28" stroke-width="1.5"/>
</svg>
