<svg width="18" height="18" viewBox="0 0 18 18" fill="none" xmlns="http://www.w3.org/2000/svg">
<path opacity="0.4" d="M14.597 2.99513C12.5857 1.76144 10.8303 2.2586 9.7758 3.05052C9.34335 3.37523 9.1272 3.53759 9 3.53759C8.8728 3.53759 8.65665 3.37523 8.2242 3.05052C7.16971 2.2586 5.41431 1.76144 3.40308 2.99513C0.763552 4.61421 0.166288 9.95564 6.25465 14.462C7.41429 15.3204 7.9941 15.7495 9 15.7495C10.0059 15.7495 10.5857 15.3204 11.7454 14.462C17.8337 9.95564 17.2364 4.61421 14.597 2.99513Z" fill="black"/>
<path d="M14.597 2.99513C12.5857 1.76144 10.8303 2.2586 9.7758 3.05052C9.34335 3.37523 9.1272 3.53759 9 3.53759C8.8728 3.53759 8.65665 3.37523 8.2242 3.05052C7.16972 2.2586 5.41432 1.76144 3.40308 2.99513C0.763552 4.61421 0.166289 9.95563 6.25465 14.462C7.41429 15.3204 7.9941 15.7495 9 15.7495C10.0059 15.7495 10.5857 15.3204 11.7454 14.462C17.8337 9.95563 17.2364 4.61421 14.597 2.99513Z" stroke="black" stroke-width="1.5" stroke-linecap="round"/>
<path d="M9 6.75V11.25M6.75 9H11.25" stroke="black" stroke-width="1.5" stroke-linecap="round"/>
</svg>
