<svg width="20" height="20" viewBox="0 0 20 20" fill="none" xmlns="http://www.w3.org/2000/svg">
<path d="M1.62695 5.00012L7.25023 8.26426C9.32333 9.46763 10.1992 9.46763 12.2723 8.26426L17.8956 5.00012" stroke="#EEE6DA" stroke-width="1.5" stroke-linejoin="round"/>
<path d="M1.63978 11.2298C1.69296 13.7844 1.71954 15.0617 2.63964 16.0079C3.55974 16.9541 4.84028 16.987 7.40137 17.0529C8.97983 17.0936 10.5427 17.0936 12.1212 17.0529C14.6823 16.987 15.9628 16.9541 16.8829 16.0079C17.803 15.0617 17.8296 13.7844 17.8828 11.2298C17.8999 10.4084 17.8999 9.59181 17.8828 8.77041C17.8296 6.2158 17.803 4.93849 16.8829 3.9923C15.9628 3.04611 14.6823 3.01315 12.1212 2.94722C10.5427 2.90659 8.97982 2.90659 7.40137 2.94722C4.84028 3.01313 3.55974 3.04609 2.63964 3.99229C1.71954 4.93848 1.69295 6.21579 1.63978 8.7704C1.62268 9.5918 1.62268 10.4084 1.63978 11.2298Z" stroke="#EEE6DA" stroke-width="1.5" stroke-linejoin="round"/>
</svg>
