<svg width="19" height="19" viewBox="0 0 19 19" fill="none" xmlns="http://www.w3.org/2000/svg">
<g clip-path="url(#clip0_33574_449)">
<path d="M14.5802 6.98753C15.0592 7.76926 15.4963 8.62718 15.7048 9.51213C15.7803 9.83234 15.8258 10.1561 15.8325 10.481C15.8358 10.6414 16.0568 10.6772 16.1112 10.5264C16.5034 9.44027 16.5448 8.26106 16.2607 7.1245C15.81 5.3214 14.7008 4.05732 13.4731 2.73879C13.1313 2.37176 12.654 1.91789 12.3901 1.41706C12.3215 1.28687 12.125 1.33148 12.1197 1.47854C12.1057 1.86649 12.1615 2.24034 12.2647 2.60738C12.4557 3.28698 12.8091 3.9431 13.1813 4.62172C13.7219 5.60733 13.9957 6.03335 14.5802 6.98753Z" fill="#FFD250"/>
<path d="M16.1113 10.5264C16.0569 10.677 15.8356 10.6412 15.8323 10.4811C15.8255 10.1569 15.7802 9.83333 15.7052 9.51383C15.7657 8.85018 15.7106 8.17501 15.5451 7.51393C15.0945 5.7107 13.9853 4.44679 12.7576 3.12822C12.6091 2.96847 12.4348 2.79216 12.2635 2.60306C12.161 2.23754 12.1059 1.86506 12.1197 1.47855C12.1251 1.33149 12.3215 1.28691 12.39 1.41696C12.654 1.91793 13.1315 2.37184 13.473 2.7388C14.7007 4.05737 15.8099 5.32123 16.2609 7.1245C16.5449 8.26125 16.5036 9.44035 16.1113 10.5264Z" fill="#FFC433"/>
<path d="M4.58023 4.41015C4.28021 4.81716 4.10794 4.95585 3.83942 5.38426C3.63203 5.71515 3.40608 6.34543 3.4476 6.80605C3.45512 6.88951 3.34832 6.93163 3.29597 6.8662C3.02277 6.52466 2.78638 6.09516 2.66443 5.71667L2.6632 5.71283C2.50362 5.21485 2.51234 4.65266 2.74729 4.18547C3.04752 3.58845 3.65615 3.22447 4.20086 2.83737C4.22744 2.81849 4.25402 2.79929 4.28052 2.77982C4.65128 2.50753 5.01167 2.17671 5.20534 1.77783C5.24563 1.6949 5.3698 1.72485 5.36766 1.81703C5.34646 2.71517 5.07224 3.74271 4.58023 4.41015Z" fill="#FFD250"/>
<path d="M5.36781 1.81726C5.34643 2.71526 5.07222 3.74295 4.58027 4.41021C4.28032 4.81739 4.10791 4.95612 3.8395 5.38467C3.63193 5.71539 3.40627 6.34571 3.44754 6.80611C3.45513 6.88978 3.34829 6.93183 3.29612 6.86626C3.02299 6.52504 2.78657 6.09673 2.66486 5.71817C2.73513 5.52112 2.82123 5.34157 2.90381 5.21009C3.17223 4.78153 3.34467 4.64281 3.64459 4.23601C3.93438 3.84262 4.14852 3.32378 4.28 2.7804C4.65059 2.50763 5.01168 2.1774 5.20514 1.77821C5.24575 1.6952 5.36999 1.72491 5.36781 1.81726Z" fill="#FFC433"/>
<path d="M13.2722 8.65651C13.7569 9.63343 14.0757 10.6787 14.1356 11.7882C14.2204 13.3618 13.8497 15.0004 12.9053 16.2826C12.2677 17.1483 11.3844 17.8018 10.3744 18.1688C9.72044 18.4064 9.06773 18.4764 8.37972 18.4967L8.33624 18.498C5.05036 18.5852 2.31917 15.7964 2.57142 12.2005C2.65914 10.9501 3.00964 9.71373 3.53769 8.5997C3.60614 8.45531 3.78037 8.39425 3.92318 8.46593C4.31798 8.66411 5.01355 9.21279 5.07665 10.6321C5.12176 11.6438 5.53158 12.4244 6.35096 12.729C6.69852 12.8582 7.03472 12.5173 6.89501 12.1738C6.21684 10.5068 4.96574 6.08568 8.35466 1.64931C8.62469 1.29581 8.92415 0.942246 9.25575 0.589946C9.4239 0.411282 9.72452 0.514887 9.7485 0.759082C9.82676 1.55671 10.1026 2.57585 10.2687 3.19137C10.4054 3.69804 10.5863 4.19265 10.8049 4.66976C11.4581 6.09577 12.575 7.25156 13.2722 8.65651Z" fill="#C57014"/>
<path d="M12.9054 16.2827C12.2678 17.1485 11.3843 17.8019 10.3744 18.1689C9.72091 18.4065 9.0683 18.4765 8.38075 18.4968C8.54813 18.4561 8.71314 18.4063 8.87505 18.3475C9.88498 17.9805 10.7685 17.327 11.4061 16.4613C12.3504 15.1793 12.721 13.5405 12.6362 11.9669C12.5765 10.8574 12.2577 9.81229 11.773 8.8353C11.0757 7.43014 9.95888 6.27459 9.30575 4.84844C9.08693 4.37137 8.9062 3.8769 8.76926 3.37012C8.65008 2.92747 8.47342 2.27634 8.35498 1.64894C8.62449 1.29538 8.9243 0.941986 9.25575 0.589896C9.42384 0.411303 9.72449 0.514908 9.7484 0.759068C9.82666 1.55673 10.1027 2.57608 10.2686 3.19156C10.4055 3.69799 10.5862 4.19281 10.8047 4.66988C11.4582 6.09568 12.575 7.25162 13.2723 8.65674C13.757 9.63335 14.0758 10.6788 14.1355 11.7884C14.2203 13.3619 13.8498 15.0003 12.9054 16.2827Z" fill="#FFB25B"/>
<path d="M6.98885 16.885C6.96956 16.8754 6.95036 16.8656 6.93126 16.8556C6.32679 16.5393 5.91767 16.0569 5.64514 15.426C5.44444 14.9614 5.36231 14.4424 5.41079 13.9379C5.4168 13.8753 5.49323 13.8487 5.53799 13.8927C5.68438 14.0368 5.84283 14.1705 6.0049 14.2949C6.55126 14.7144 7.31123 15.0161 7.9548 14.6231C8.57239 14.2461 8.82186 13.3958 8.92571 12.7257C8.96196 12.4918 8.97237 12.2521 8.97289 12.0121C8.97328 11.8302 8.96801 11.6482 8.96396 11.4685C8.96266 11.4109 9.02503 11.3741 9.07502 11.4028C9.9946 11.9316 10.9205 12.4667 11.1926 13.585C11.6663 15.5324 10.025 17.3218 8.05261 17.1753C7.68347 17.1479 7.32065 17.0495 6.98885 16.885Z" fill="#FFD250"/>
<path d="M8.05275 17.1753C7.68361 17.1478 7.32066 17.0496 6.98886 16.8848C6.96972 16.8753 6.95069 16.8657 6.93176 16.8558L6.93503 16.8557C8.74361 16.7792 10.1648 15.0895 9.72018 13.2601C9.59232 12.7353 9.32077 12.3393 8.973 12.0114C8.97336 11.83 8.96815 11.6482 8.96418 11.4685C8.96274 11.4109 9.02504 11.3739 9.07503 11.4029C9.99475 11.9314 10.9207 12.4668 11.1927 13.5851C11.6665 15.5321 10.0252 17.3216 8.05275 17.1753Z" fill="#FFC433"/>
<path d="M11.5304 3.64676C11.6017 3.64676 11.672 3.61779 11.7224 3.56706C11.7856 3.50385 11.8149 3.40966 11.7966 3.32184C11.7704 3.19598 11.6591 3.10338 11.5304 3.10338C11.3808 3.10338 11.2587 3.22629 11.2587 3.37507C11.2587 3.52441 11.3796 3.64676 11.5304 3.64676ZM14.4837 1.97546C14.555 1.97546 14.6253 1.9465 14.6757 1.89577C14.7389 1.83255 14.7682 1.73837 14.7499 1.65055C14.7237 1.52469 14.6124 1.43209 14.4837 1.43209C14.3341 1.43209 14.212 1.555 14.212 1.70378C14.212 1.85312 14.3329 1.97546 14.4837 1.97546ZM15.5216 3.02955C15.593 3.02955 15.6632 3.00059 15.7136 2.94986C15.7768 2.88664 15.8062 2.79246 15.7878 2.70464C15.7616 2.57878 15.6503 2.48618 15.5216 2.48618C15.372 2.48618 15.2499 2.60909 15.2499 2.75787C15.2499 2.90721 15.3708 3.02955 15.5216 3.02955ZM5.36767 5.9343C5.43903 5.9343 5.50928 5.90534 5.55965 5.85461C5.62286 5.79139 5.65222 5.69721 5.6339 5.60939C5.60764 5.48353 5.49634 5.39093 5.36767 5.39093C5.21811 5.39093 5.09598 5.51384 5.09598 5.66262C5.09598 5.812 5.21685 5.9343 5.36767 5.9343ZM4.85133 6.73562C4.70177 6.73562 4.57964 6.85853 4.57964 7.00731C4.57964 7.15669 4.70051 7.279 4.85133 7.279C4.92269 7.279 4.99294 7.25003 5.04331 7.1993C5.10653 7.13609 5.13588 7.0419 5.11756 6.95408C5.0913 6.82819 4.97996 6.73562 4.85133 6.73562ZM3.73775 1.82658C3.80912 1.82658 3.87936 1.79761 3.92974 1.74688C3.99295 1.68367 4.02231 1.58948 4.00399 1.50166C3.97773 1.3758 3.86642 1.2832 3.73775 1.2832C3.5882 1.2832 3.46606 1.40611 3.46606 1.55489C3.46606 1.70427 3.58693 1.82658 3.73775 1.82658Z" fill="#C57014"/>
</g>
<defs>
<clipPath id="clip0_33574_449">
<rect width="18" height="18" fill="white" transform="translate(0.5 0.5)"/>
</clipPath>
</defs>
</svg>
