<svg width="20" height="20" viewBox="0 0 20 20" fill="none" xmlns="http://www.w3.org/2000/svg">
<path d="M12.9163 15C12.9163 16.6108 11.6105 17.9167 9.99967 17.9167C8.38884 17.9167 7.08301 16.6108 7.08301 15" stroke="#87B842" stroke-width="1.5" stroke-linecap="round" stroke-linejoin="round"/>
<path d="M16.0259 14.9999H3.97406C3.15996 14.9999 2.5 14.3399 2.5 13.5258C2.5 13.1349 2.6553 12.76 2.93174 12.4835L4.16667 11.2486V7.91659C4.16667 4.69493 6.77834 2.08325 10 2.08325C13.2217 2.08325 15.8333 4.69492 15.8333 7.91659V11.2486L17.0682 12.4835C17.3447 12.76 17.5 13.1349 17.5 13.5258C17.5 14.3399 16.84 14.9999 16.0259 14.9999Z" stroke="#87B842" stroke-width="1.5" stroke-linecap="round" stroke-linejoin="round"/>
</svg>
