<svg width="10" height="14" viewBox="0 0 10 14" fill="none" xmlns="http://www.w3.org/2000/svg">
<path d="M3.87829 0.5C4.78454 4.70625 0.468919 4.62187 0.500169 8.85625C0.525169 12.325 4.20017 13.5 5.01579 13.5C5.83142 13.5 9.22829 12.7625 9.48767 8.85625C9.70954 5.53125 6.93454 2.35625 3.87829 0.5ZM6.20017 11.5844C5.88142 12.8 4.13767 12.8031 3.81267 11.5875C3.76579 11.4125 3.73767 11.2281 3.73767 11.0406C3.73767 9.75938 5.00642 8.28125 5.00642 8.28125C5.00642 8.28125 6.26892 9.75937 6.26892 11.0406C6.27205 11.2281 6.24704 11.4094 6.20017 11.5844Z" fill="#FB923C"/>
</svg>
