<svg width="19" height="18" viewBox="0 0 19 18" fill="none" xmlns="http://www.w3.org/2000/svg">
<path opacity="0.4" d="M7.17891 0.937502H7.22388H11.4889C12.1288 0.937464 12.676 0.937434 13.1129 1.00844C13.5888 1.08578 14.0083 1.25769 14.3329 1.65125C14.6464 2.03113 14.7539 2.45738 14.7694 2.93007C14.7837 3.36624 14.7198 3.89615 14.6447 4.5187C14.352 6.94817 13.7106 9.13148 12.8316 10.6838C11.9684 12.2081 10.7781 13.3125 9.33397 13.3125C7.88977 13.3125 6.69945 12.2081 5.83631 10.6838C4.95727 9.13148 4.31586 6.94818 4.02314 4.5187C3.94809 3.89615 3.88422 3.36624 3.8985 2.93007C3.91398 2.45738 4.02153 2.03113 4.33493 1.65125C4.65963 1.25769 5.07906 1.08578 5.55493 1.00844C5.99187 0.937434 6.53907 0.937464 7.17891 0.937502Z" fill="black"/>
<path fill-rule="evenodd" clip-rule="evenodd" d="M3.89687 3H3.51086C3.10069 2.99994 2.71817 2.99988 2.41139 3.04252C2.07667 3.08905 1.68507 3.20365 1.39425 3.55399C1.09879 3.90993 1.06466 4.31868 1.09133 4.65805C1.11524 4.96212 1.19936 5.32762 1.28776 5.71172L1.59158 7.03289C2.10155 9.2505 3.95031 10.882 6.17514 11.2344C6.05718 11.0583 5.94419 10.8744 5.83631 10.6838C5.61128 10.2865 5.40183 9.84772 5.20982 9.3741C4.13338 8.84677 3.32497 7.87755 3.05343 6.69673L2.76038 5.42238C2.65726 4.97394 2.60081 4.71966 2.58672 4.5405C2.77747 4.51399 3.08427 4.5 3.55724 4.5H4.02089C3.95078 3.91833 3.89106 3.41803 3.89687 3ZM12.4927 11.2344C14.7175 10.8819 16.5663 9.2505 17.0762 7.03289L17.3692 5.75856C17.4577 5.37446 17.5525 4.96212 17.5765 4.65805C17.6032 4.31868 17.569 3.90993 17.2735 3.55399C16.9828 3.20365 16.5911 3.08905 16.2564 3.04252C15.9496 2.99988 15.5671 2.99994 15.157 3H14.771C14.7768 3.41803 14.7171 3.91833 14.647 4.5H15.1105C15.5835 4.5 15.8903 4.51399 16.081 4.5405C16.067 4.71966 16.0105 4.97394 15.9074 5.42238L15.6144 6.69673C15.3428 7.87747 14.5345 8.8467 13.4581 9.3741C13.2661 9.84772 13.0566 10.2865 12.8316 10.6838C12.7237 10.8744 12.6107 11.0583 12.4927 11.2344Z" fill="black"/>
<path d="M7.58017 12.7286C6.8442 13.2153 6.26219 13.9906 5.90051 14.8881C5.70441 15.3747 5.74429 15.8891 5.93623 16.2918C6.12152 16.6806 6.50803 17.0625 7.05307 17.0625H11.6149C12.16 17.0625 12.5465 16.6806 12.7317 16.2918C12.9237 15.8891 12.9636 15.3747 12.7674 14.8881C12.4058 13.9906 11.8238 13.2153 11.0878 12.7285C10.5565 13.0983 9.96988 13.3125 9.33395 13.3125C8.69803 13.3125 8.11138 13.0983 7.58017 12.7286Z" fill="black"/>
</svg>
