<svg width="24" height="24" viewBox="0 0 24 24" fill="none" xmlns="http://www.w3.org/2000/svg">
<mask id="mask0_33258_378" style="mask-type:luminance" maskUnits="userSpaceOnUse" x="0" y="0" width="24" height="24">
<path d="M0 0H24V24H0V0Z" fill="white"/>
</mask>
<g mask="url(#mask0_33258_378)">
<path d="M6.58594 0.897508V9.0127L7.60842 10.3501H8.33639V0.897508H6.58594ZM9.21234 0.897508V10.3501H14.9341V0.897508H9.21234ZM15.81 0.897508V10.3501H16.3887L17.4243 9.01278V0.897461L15.81 0.897508ZM8.15344 11.2261V12.0757H15.8452V11.2261H8.15344ZM9.59625 12.9517L9.97275 13.4454C8.7886 14.0085 7.85737 15.0138 7.39022 16.2491L10.4385 18.4742L10.6949 18.6602L10.5967 18.9619L9.78525 21.4787L11.9254 19.9289L12.1832 19.7427L12.4396 19.9289L15.3678 22.0485C16.5337 21.113 17.2793 19.6766 17.2793 18.0612C17.2793 17.7567 17.2525 17.4587 17.2018 17.169L14.4434 19.1819L13.9278 18.4742L16.9541 16.2651C16.4534 14.9269 15.4104 13.8561 14.0889 13.3224L14.376 12.9517H12.5566L11.3613 16.608L10.5293 16.3355L11.6353 12.9517H9.59625ZM7.14122 17.1529C7.08858 17.4476 7.06059 17.751 7.06059 18.0611C7.06059 19.5687 7.70934 20.9209 8.74373 21.855L9.66671 18.9943L7.14122 17.1529ZM12.1832 20.8253L9.76773 22.5744C10.4833 22.9551 11.3009 23.1705 12.1701 23.1705C13.0454 23.1705 13.8678 22.9514 14.587 22.5655L12.1832 20.8253Z" fill="#FFD600"/>
</g>
</svg>
