<svg width="30" height="31" viewBox="0 0 30 31" fill="none" xmlns="http://www.w3.org/2000/svg">
<path d="M17.9605 12.546C18.1999 12.884 18.668 12.9639 19.0061 12.7245C19.3441 12.4851 19.424 12.017 19.1845 11.679L17.9605 12.546ZM11.528 18.4082C11.8326 18.6889 12.3071 18.6695 12.5878 18.3649C12.8685 18.0603 12.849 17.5858 12.5444 17.3051L11.528 18.4082ZM20.1563 3.36955L20.5248 2.71631V2.71631L20.1563 3.36955ZM22.3122 4.58559L21.9437 5.23884V5.23884L22.3122 4.58559ZM9.84369 25.7556L10.2122 25.1023H10.2122L9.84369 25.7556ZM7.68782 24.5395L8.05629 23.8863H8.05628L7.68782 24.5395ZM7.68979 4.58547L7.32133 3.93222V3.93222L7.68979 4.58547ZM9.84567 3.36943L9.4772 2.71619L9.84567 3.36943ZM7.07281 6.36741L6.34718 6.55706V6.55706L7.07281 6.36741ZM3.73628 11.9591L3.54222 11.2347H3.54222L3.73628 11.9591ZM3.73627 17.166L3.54217 17.8905H3.54218L3.73627 17.166ZM7.0709 22.7576L7.7965 22.9473L7.0709 22.7576ZM11.6679 3.73205L11.14 4.26475V4.26475L11.6679 3.73205ZM18.3341 3.73217L18.862 4.26487V4.26487L18.3341 3.73217ZM22.9291 6.3675L23.6547 6.55724V6.55724L22.9291 6.3675ZM26.2637 11.9591L26.4578 11.2346L26.2637 11.9591ZM6.89597 5.18066L6.20592 4.88684L6.20592 4.88684L6.89597 5.18066ZM10.7505 26.1213L10.651 25.3779L10.651 25.3779L10.7505 26.1213ZM11.6659 25.3929L11.1379 24.8603L11.1379 24.8603L11.6659 25.3929ZM2.62886 12.3883L2.03493 11.9304L2.03493 11.9304L2.62886 12.3883ZM26.75 13.6369C26.75 14.0511 27.0858 14.3869 27.5 14.3869C27.9142 14.3869 28.25 14.0511 28.25 13.6369L26.75 13.6369ZM12.4529 25.6908C12.7721 25.4268 12.8167 24.954 12.5527 24.6349C12.2887 24.3157 11.8159 24.271 11.4967 24.5351L12.4529 25.6908ZM10.625 14.6385H11.375C11.375 12.6365 12.998 11.0135 15 11.0135V10.2635V9.51349C12.1695 9.51349 9.875 11.808 9.875 14.6385H10.625ZM15 10.2635V11.0135C16.2218 11.0135 17.3026 11.6172 17.9605 12.546L18.5725 12.1125L19.1845 11.679C18.2575 10.3702 16.7288 9.51349 15 9.51349V10.2635ZM12.0362 17.8567L12.5444 17.3051C11.8244 16.6417 11.375 15.6931 11.375 14.6385H10.625H9.875C9.875 16.1295 10.5127 17.4727 11.528 18.4082L12.0362 17.8567ZM2.5 15.7632H3.25L3.25 13.3619H2.5H1.75L1.75 15.7632H2.5ZM20.1563 3.36955L19.7878 4.0228L21.9437 5.23884L22.3122 4.58559L22.6807 3.93234L20.5248 2.71631L20.1563 3.36955ZM9.84369 25.7556L10.2122 25.1023L8.05629 23.8863L7.68782 24.5395L7.31935 25.1928L9.47522 26.4088L9.84369 25.7556ZM7.68979 4.58547L8.05826 5.23872L10.2141 4.02268L9.84567 3.36943L9.4772 2.71619L7.32133 3.93222L7.68979 4.58547ZM7.07281 6.36741L6.34718 6.55706C6.86729 8.54707 5.59965 10.6835 3.54222 11.2347L3.73628 11.9591L3.93034 12.6836C6.74965 11.9284 8.53614 9.00033 7.79843 6.17776L7.07281 6.36741ZM3.73627 17.166L3.54218 17.8905C5.59894 18.4415 6.86571 20.5777 6.3453 22.5679L7.0709 22.7576L7.7965 22.9473C8.5345 20.1251 6.74955 17.1969 3.93037 16.4416L3.73627 17.166ZM11.6679 3.73205L11.14 4.26475C13.2563 6.36231 16.7456 6.36241 18.862 4.26487L18.3341 3.73217L17.8061 3.19947C16.2744 4.71751 13.7276 4.71747 12.1959 3.19936L11.6679 3.73205ZM22.9291 6.3675L22.2035 6.17777C21.4655 9.00003 23.2505 11.9282 26.0696 12.6835L26.2637 11.9591L26.4578 11.2346C24.4011 10.6836 23.1343 8.54742 23.6547 6.55724L22.9291 6.3675ZM9.84567 3.36943L10.2141 4.02268C10.4609 3.88348 10.5962 3.80823 10.6951 3.76512C10.7883 3.72448 10.7481 3.7598 10.6529 3.74707L10.7524 3.0037L10.8519 2.26033C10.548 2.21965 10.287 2.30662 10.0954 2.39021C9.90938 2.47134 9.69571 2.59293 9.4772 2.71619L9.84567 3.36943ZM11.6679 3.73205L12.1959 3.19936C11.9703 2.97578 11.767 2.77333 11.5927 2.62773C11.4318 2.49326 11.1808 2.30434 10.8519 2.26033L10.7524 3.0037L10.6529 3.74707C10.5329 3.731 10.5041 3.67279 10.6309 3.77878C10.7444 3.87364 10.8944 4.02139 11.14 4.26475L11.6679 3.73205ZM7.68979 4.58547L7.32133 3.93222C7.09841 4.05796 6.88061 4.17975 6.71306 4.29821C6.54181 4.4193 6.32796 4.60023 6.20592 4.88684L6.89597 5.18066L7.58602 5.47449C7.5466 5.56707 7.49259 5.58412 7.57906 5.52298C7.66924 5.45922 7.80704 5.38042 8.05826 5.23872L7.68979 4.58547ZM7.07281 6.36741L7.79843 6.17776C7.70842 5.83334 7.65373 5.62157 7.6275 5.47041C7.61504 5.39857 7.61432 5.36834 7.61437 5.36371C7.6144 5.36128 7.61451 5.40758 7.58602 5.47448L6.89597 5.18066L6.20592 4.88684C6.07314 5.19869 6.11362 5.51959 6.14958 5.72684C6.18919 5.95508 6.26423 6.23967 6.34718 6.55706L7.07281 6.36741ZM7.68782 24.5395L8.05628 23.8863C7.80505 23.7446 7.66724 23.6658 7.57706 23.602C7.49059 23.5409 7.5446 23.5579 7.58402 23.6505L6.89396 23.9443L6.20389 24.2381C6.32592 24.5247 6.53978 24.7056 6.71105 24.8267C6.8786 24.9452 7.09642 25.067 7.31935 25.1928L7.68782 24.5395ZM7.0709 22.7576L6.3453 22.5679C6.26231 22.8852 6.18724 23.1698 6.14761 23.398C6.11163 23.6053 6.07112 23.9262 6.20389 24.2381L6.89396 23.9443L7.58402 23.6505C7.6125 23.7174 7.61239 23.7637 7.61236 23.7613C7.61231 23.7567 7.61303 23.7264 7.6255 23.6546C7.65174 23.5035 7.70645 23.2917 7.7965 22.9473L7.0709 22.7576ZM9.84369 25.7556L9.47522 26.4088C9.69374 26.5321 9.90743 26.6537 10.0934 26.7348C10.2851 26.8184 10.5461 26.9054 10.85 26.8647L10.7505 26.1213L10.651 25.3779C10.7461 25.3652 10.7863 25.4005 10.6931 25.3599C10.5943 25.3168 10.459 25.2415 10.2122 25.1023L9.84369 25.7556ZM11.6659 25.3929L11.1379 24.8603C10.8924 25.1036 10.7424 25.2514 10.6289 25.3462C10.5021 25.4522 10.5309 25.394 10.651 25.3779L10.7505 26.1213L10.85 26.8647C11.1789 26.8206 11.4299 26.6317 11.5908 26.4972C11.7651 26.3516 11.9684 26.1491 12.1939 25.9255L11.6659 25.3929ZM22.3122 4.58559L21.9437 5.23884C22.195 5.38055 22.3328 5.45935 22.4229 5.52311C22.5094 5.58425 22.4554 5.5672 22.416 5.47461L23.106 5.18083L23.7961 4.88705C23.6741 4.6004 23.4602 4.41946 23.2889 4.29836C23.1214 4.17988 22.9036 4.05809 22.6806 3.93234L22.3122 4.58559ZM22.9291 6.3675L23.6547 6.55724C23.7377 6.23989 23.8128 5.95532 23.8524 5.72708C23.8884 5.51981 23.9289 5.19892 23.7961 4.88705L23.106 5.18083L22.416 5.47461C22.3875 5.40771 22.3876 5.36141 22.3876 5.36383C22.3877 5.36846 22.387 5.39867 22.3745 5.47049C22.3483 5.62164 22.2936 5.83338 22.2035 6.17777L22.9291 6.3675ZM20.1563 3.36955L20.5248 2.71631C20.3063 2.59305 20.0926 2.47146 19.9066 2.39033C19.7149 2.30674 19.454 2.21977 19.1501 2.26045L19.2496 3.00382L19.3491 3.74719C19.2539 3.75992 19.2137 3.7246 19.3069 3.76524C19.4058 3.80835 19.5411 3.8836 19.7878 4.0228L20.1563 3.36955ZM18.3341 3.73217L18.862 4.26487C19.1075 4.02151 19.2576 3.87376 19.3711 3.7789C19.4979 3.67291 19.4691 3.73112 19.3491 3.74719L19.2496 3.00382L19.1501 2.26045C18.8212 2.30446 18.5702 2.49338 18.4093 2.62784C18.235 2.77344 18.0317 2.97589 17.8061 3.19947L18.3341 3.73217ZM2.5 13.3619H3.25C3.25 13.0767 3.25095 12.9211 3.26211 12.8136C3.27265 12.7119 3.28367 12.7674 3.22278 12.8463L2.62886 12.3883L2.03493 11.9304C1.84518 12.1764 1.79178 12.4499 1.77011 12.6588C1.74905 12.8619 1.75 13.1096 1.75 13.3619H2.5ZM3.73628 11.9591L3.54222 11.2347C3.22953 11.3184 2.94811 11.3931 2.73199 11.471C2.53419 11.5423 2.2397 11.6648 2.03493 11.9304L2.62886 12.3883L3.22278 12.8463C3.1799 12.9019 3.14108 12.924 3.14295 12.9229C3.14686 12.9206 3.17304 12.9065 3.24051 12.8822C3.38279 12.8309 3.59065 12.7746 3.93034 12.6836L3.73628 11.9591ZM2.5 15.7632H1.75C1.75 16.0155 1.74905 16.2632 1.77011 16.4663C1.79177 16.6752 1.84518 16.9486 2.03491 17.1947L2.62885 16.7367L3.22278 16.2788C3.28367 16.3577 3.27265 16.4132 3.2621 16.3115C3.25095 16.204 3.25 16.0484 3.25 15.7632H2.5ZM3.73627 17.166L3.93037 16.4416C3.59068 16.3506 3.38281 16.2942 3.24052 16.2429C3.17305 16.2186 3.14687 16.2045 3.14296 16.2022C3.14108 16.2011 3.1799 16.2231 3.22278 16.2788L2.62885 16.7367L2.03491 17.1947C2.23966 17.4602 2.53414 17.5828 2.73194 17.6541C2.94806 17.732 3.22948 17.8067 3.54217 17.8905L3.73627 17.166ZM27.5 13.3619L28.25 13.3619C28.25 13.1096 28.251 12.8619 28.2299 12.6588C28.2082 12.4499 28.1548 12.1765 27.9651 11.9304L27.3712 12.3884L26.7772 12.8464C26.7163 12.7674 26.7274 12.7119 26.7379 12.8136C26.749 12.9211 26.75 13.0767 26.75 13.3619H27.5ZM26.2637 11.9591L26.0696 12.6835C26.4093 12.7746 26.6172 12.8309 26.7595 12.8822C26.827 12.9065 26.8531 12.9206 26.857 12.9229C26.8589 12.924 26.8201 12.902 26.7772 12.8464L27.3712 12.3884L27.9651 11.9304C27.7603 11.6649 27.4659 11.5423 27.2681 11.471C27.0519 11.3932 26.7705 11.3184 26.4578 11.2346L26.2637 11.9591ZM27.5 13.3619H26.75V13.6369H27.5L28.25 13.6369V13.3619L27.5 13.3619ZM11.6659 25.3929L12.1939 25.9255C12.2774 25.8427 12.3639 25.7645 12.4529 25.6908L11.9748 25.113L11.4967 24.5351C11.3732 24.6373 11.2534 24.7457 11.1379 24.8603L11.6659 25.3929Z" fill="#F55216"/>
<path d="M21.25 19.25V21.75M21.2612 24.25H21.25M27.5 21.75C27.5 25.2018 24.7018 28 21.25 28C17.7982 28 15 25.2018 15 21.75C15 18.2982 17.7982 15.5 21.25 15.5C24.7018 15.5 27.5 18.2982 27.5 21.75Z" stroke="#F55216" stroke-width="1.5" stroke-linecap="round"/>
</svg>
