<svg width="32" height="32" viewBox="0 0 32 32" fill="none" xmlns="http://www.w3.org/2000/svg">
<rect width="32" height="32" rx="16" fill="#FFB74D" fill-opacity="0.3"/>
<path d="M20 9.5C20 10.3284 19.3284 11 18.5 11C17.6716 11 17 10.3284 17 9.5C17 8.67157 17.6716 8 18.5 8C19.3284 8 20 8.67157 20 9.5Z" stroke="#FFB74D" stroke-width="1.5"/>
<path d="M14.7259 12.2136C12.2259 14.7136 11 21.6324 11 25.0003M14.7259 12.2136C12.8772 10.9658 12.4518 8.69114 13.751 7M14.7259 12.2136L17.3725 14M17.3725 14L19.9835 15.7994C20.507 16.1603 20.5653 16.9117 20.1036 17.3489L18.3602 19M17.3725 14C16.5697 15.0391 16.0164 16.0207 15.6026 16.8942C15.1636 17.8209 14.9441 18.2843 14.9845 18.8132M19.0002 25.0003C18.0268 23.8647 17.0257 22.3 16.0502 20.8578C15.3666 19.8474 15.0249 19.3422 14.9845 18.8132M14.9845 18.8132L12 18" stroke="#FFB74D" stroke-width="1.5" stroke-linecap="round" stroke-linejoin="round"/>
</svg>
