<svg width="24" height="25" viewBox="0 0 24 25" fill="none" xmlns="http://www.w3.org/2000/svg">
<path d="M16 2.5V6.5M8 2.5V6.5" stroke="white" stroke-width="1.5" stroke-linecap="round" stroke-linejoin="round"/>
<path d="M21 14.5V12.5C21 8.72876 21 6.84315 19.8284 5.67157C18.6569 4.5 16.7712 4.5 13 4.5H11C7.22876 4.5 5.34315 4.5 4.17157 5.67157C3 6.84315 3 8.72876 3 12.5V14.5C3 18.2712 3 20.1569 4.17157 21.3284C5.34315 22.5 7.22876 22.5 11 22.5H12" stroke="white" stroke-width="1.5" stroke-linecap="round" stroke-linejoin="round"/>
<path d="M3 10.5H21" stroke="white" stroke-width="1.5" stroke-linecap="round" stroke-linejoin="round"/>
<path d="M18.1047 16.0055L18.7206 17.2475C18.8046 17.4204 19.0286 17.5862 19.2175 17.618L20.3339 17.805C21.0478 17.925 21.2158 18.4472 20.7014 18.9624L19.8335 19.8374C19.6865 19.9856 19.606 20.2715 19.6515 20.4761L19.9 21.5594C20.096 22.4168 19.6445 22.7485 18.8921 22.3004L17.8457 21.6758C17.6567 21.5629 17.3453 21.5629 17.1528 21.6758L16.1064 22.3004C15.3575 22.7485 14.9025 22.4133 15.0985 21.5594L15.347 20.4761C15.3925 20.2715 15.312 19.9856 15.165 19.8374L14.2971 18.9624C13.7861 18.4472 13.9506 17.925 14.6646 17.805L15.7809 17.618C15.9664 17.5862 16.1904 17.4204 16.2744 17.2475L16.8903 16.0055C17.2263 15.3315 17.7722 15.3315 18.1047 16.0055Z" stroke="white" stroke-width="1.5" stroke-linecap="round" stroke-linejoin="round"/>
</svg>
