<svg width="24" height="25" viewBox="0 0 24 25" fill="none" xmlns="http://www.w3.org/2000/svg">
<path fill-rule="evenodd" clip-rule="evenodd" d="M11.75 22.8379C5.81294 22.8379 1 18.025 1 12.0879C1 6.15083 5.81294 1.33789 11.75 1.33789C17.6871 1.33789 22.5 6.15083 22.5 12.0879C22.5 18.025 17.6871 22.8379 11.75 22.8379ZM16.5182 9.72807C16.8718 9.30379 16.8145 8.67323 16.3902 8.31966C15.9659 7.9661 15.3353 8.02342 14.9818 8.4477L10.6828 13.6065L8.45711 11.3808C8.06658 10.9903 7.43342 10.9903 7.04289 11.3808C6.65237 11.7713 6.65237 12.4045 7.04289 12.795L10.0429 15.795C10.2416 15.9937 10.5146 16.0996 10.7953 16.0869C11.076 16.0741 11.3384 15.9439 11.5182 15.7281L16.5182 9.72807Z" fill="#87B842"/>
</svg>
