<svg width="24" height="25" viewBox="0 0 24 25" fill="none" xmlns="http://www.w3.org/2000/svg">
<path fill-rule="evenodd" clip-rule="evenodd" d="M3 22.25C3 21.6977 3.44772 21.25 4 21.25H20C20.5523 21.25 21 21.6977 21 22.25C21 22.8023 20.5523 23.25 20 23.25H4C3.44772 23.25 3 22.8023 3 22.25Z" fill="#87B842"/>
<path d="M15.5375 3.49C15.8451 3.18234 15.999 3.02852 15.9741 2.83381C15.9492 2.6391 15.7765 2.53754 15.4309 2.3344C14.8634 2.00082 14.2828 1.79482 13.6358 1.75772C13.3605 1.74194 13.0836 1.75039 12.8082 1.78274C11.8838 1.89135 11.0853 2.33222 10.2435 3.00318C9.42016 3.65936 8.4829 4.59663 7.2944 5.78515L5.28516 7.79439C4.09664 8.9829 3.15936 9.92016 2.50318 10.7435C1.83222 11.5853 1.39135 12.3838 1.28274 13.3082C1.25039 13.5836 1.24194 13.8605 1.25772 14.1358C1.29482 14.7828 1.50082 15.3634 1.83441 15.9309C2.03754 16.2765 2.13911 16.4492 2.33382 16.4741C2.52852 16.499 2.68235 16.3451 2.99001 16.0375L15.5375 3.49Z" fill="#87B842"/>
<path fill-rule="evenodd" clip-rule="evenodd" d="M3.88246 17.2661C3.62258 17.526 3.49264 17.656 3.4917 17.8203C3.49076 17.9846 3.6176 18.1144 3.87128 18.374C4.2041 18.7145 4.56691 19.0773 4.95766 19.4681L5.03173 19.5421C6.14549 20.6559 7.03239 21.5428 7.82361 22.1551C8.64013 22.7869 9.43124 23.1887 10.3641 23.2422C10.6394 23.258 10.9163 23.2495 11.1917 23.2172C12.1161 23.1086 12.9146 22.6677 13.7564 21.9967C14.5797 21.3406 15.517 20.4033 16.7054 19.2148L18.7148 17.2055C19.9033 16.017 20.8406 15.0797 21.4967 14.2564C22.1677 13.4146 22.6086 12.6161 22.7172 11.6917C22.7495 11.4163 22.758 11.1394 22.7422 10.8641C22.6887 9.93125 22.2869 9.14014 21.6551 8.32362C21.0428 7.53238 20.156 6.64555 19.0421 5.53174L18.9681 5.45768C18.5774 5.06695 18.2145 4.70412 17.874 4.37128C17.6144 4.1176 17.4846 3.99076 17.3203 3.9917C17.1559 3.99265 17.026 4.12259 16.7661 4.38246L3.88246 17.2661ZM19.1488 11.0243C19.4417 11.3172 19.4417 11.792 19.1488 12.0849L16.9425 14.2912C16.6496 14.5841 16.1748 14.5841 15.8819 14.2912C15.589 13.9983 15.589 13.5234 15.8819 13.2305L18.0881 11.0243C18.381 10.7314 18.8559 10.7314 19.1488 11.0243ZM15.0515 15.1216C15.3443 15.4145 15.3443 15.8894 15.0515 16.1823L14.1059 17.1278C13.813 17.4207 13.3381 17.4207 13.0453 17.1278C12.7524 16.8349 12.7524 16.36 13.0453 16.0671L13.9908 15.1216C14.2837 14.8287 14.7586 14.8287 15.0515 15.1216Z" fill="#87B842"/>
</svg>
