<svg width="18" height="19" viewBox="0 0 18 19" fill="none" xmlns="http://www.w3.org/2000/svg">
<path opacity="0.4" d="M9 17.1128C13.1421 17.1128 16.5 13.7549 16.5 9.61279C16.5 5.47066 13.1421 2.11279 9 2.11279C4.85786 2.11279 1.5 5.47066 1.5 9.61279C1.5 13.7549 4.85786 17.1128 9 17.1128Z" fill="#757575"/>
<path d="M9 17.1128C13.1421 17.1128 16.5 13.7549 16.5 9.61279C16.5 5.47066 13.1421 2.11279 9 2.11279C5.64174 2.11279 2.8307 4.31996 1.875 7.36279H3.75" stroke="#757575" stroke-width="1.5" stroke-linecap="round" stroke-linejoin="round"/>
<path d="M9 6.61279V9.61279L10.5 11.1128" stroke="#757575" stroke-width="1.5" stroke-linecap="round" stroke-linejoin="round"/>
<path d="M1.5 9.61279C1.5 9.86577 1.5114 10.116 1.5337 10.3628M6.75 17.1128C6.4938 17.0285 6.24353 16.9301 6 16.8186M2.40704 13.3628C2.26241 13.0841 2.1334 12.7953 2.02123 12.4974M3.62342 15.0927C3.85268 15.3396 4.09729 15.5709 4.35566 15.7847" stroke="#757575" stroke-width="1.5" stroke-linecap="round" stroke-linejoin="round"/>
</svg>
