<svg width="24" height="24" viewBox="0 0 24 24" fill="none" xmlns="http://www.w3.org/2000/svg">
<mask id="mask0_33441_484" style="mask-type:luminance" maskUnits="userSpaceOnUse" x="0" y="0" width="24" height="24">
<path d="M0 0H24V24H0V0Z" fill="white"/>
</mask>
<g mask="url(#mask0_33441_484)">
<path fill-rule="evenodd" clip-rule="evenodd" d="M15.75 6.75C15.75 7.16421 16.0858 7.5 16.5 7.5H21V12C21 12.4142 21.3358 12.75 21.75 12.75C22.1642 12.75 22.5 12.4142 22.5 12V6.75C22.5 6.70075 22.4952 6.65198 22.4856 6.60368C22.476 6.55538 22.4618 6.50848 22.4429 6.46299C22.4241 6.41749 22.401 6.37427 22.3736 6.33332C22.3462 6.29238 22.3152 6.25449 22.2803 6.21967C22.2455 6.18485 22.2076 6.15376 22.1667 6.1264C22.1257 6.09904 22.0825 6.07594 22.037 6.05709C21.9915 6.03824 21.9446 6.02402 21.8963 6.01441C21.848 6.0048 21.7992 6 21.75 6H16.5C16.0858 6 15.75 6.33579 15.75 6.75Z" fill="#757575"/>
<path fill-rule="evenodd" clip-rule="evenodd" d="M21.5303 6.96967C21.2375 6.67678 20.7625 6.67678 20.4697 6.96967L14.0304 13.4089C13.8839 13.5554 13.7071 13.6287 13.5 13.6287C13.2929 13.6287 13.116 13.5554 12.9695 13.4089L10.5912 11.0305C10.1518 10.5911 9.62142 10.3713 9 10.3713C8.37857 10.3713 7.8482 10.591 7.40888 11.0304L1.71967 16.7197C1.42678 17.0126 1.42678 17.4874 1.71967 17.7803C2.01256 18.0732 2.48744 18.0732 2.78033 17.7803L8.46955 12.0911C8.61604 11.9446 8.79285 11.8713 9 11.8713C9.20713 11.8713 9.38393 11.9446 9.53039 12.0911L11.9089 14.4696C12.3482 14.909 12.8786 15.1287 13.5 15.1287C14.1214 15.1287 14.6518 14.9089 15.0912 14.4695L21.5303 8.03033C21.8232 7.73744 21.8232 7.26256 21.5303 6.96967Z" fill="#757575"/>
</g>
</svg>
