<svg width="25" height="24" viewBox="0 0 25 24" fill="none" xmlns="http://www.w3.org/2000/svg">
<path d="M10.625 7L10.1091 8.39405C9.43274 10.222 9.09453 11.136 8.42778 11.8028C7.76103 12.4695 6.84704 12.8077 5.01905 13.4842L3.625 14L5.01905 14.5158C6.84704 15.1923 7.76103 15.5305 8.42778 16.1972C9.09453 16.864 9.43274 17.778 10.1091 19.6059L10.625 21L11.1408 19.6059C11.8173 17.778 12.1555 16.864 12.8222 16.1972C13.489 15.5305 14.403 15.1923 16.2309 14.5158L17.625 14L16.2309 13.4842C14.403 12.8077 13.489 12.4695 12.8222 11.8028C12.1555 11.136 11.8173 10.222 11.1408 8.39405L10.625 7Z" stroke="#BABABA" stroke-width="1.5" stroke-linejoin="round"/>
<path d="M18.625 3L18.4039 3.59745C18.114 4.38087 17.9691 4.77259 17.6833 5.05833C17.3976 5.34408 17.0059 5.48903 16.2225 5.77892L15.625 6L16.2225 6.22108C17.0059 6.51097 17.3976 6.65592 17.6833 6.94167C17.9691 7.22741 18.114 7.61913 18.4039 8.40255L18.625 9L18.8461 8.40255C19.136 7.61913 19.2809 7.22741 19.5667 6.94166C19.8524 6.65592 20.2441 6.51097 21.0275 6.22108L21.625 6L21.0275 5.77892C20.2441 5.48903 19.8524 5.34408 19.5667 5.05833C19.2809 4.77259 19.136 4.38087 18.8461 3.59745L18.625 3Z" stroke="#BABABA" stroke-width="1.5" stroke-linejoin="round"/>
</svg>
