<svg width="25" height="24" viewBox="0 0 25 24" fill="none" xmlns="http://www.w3.org/2000/svg">
<path d="M16.125 2V6M8.125 2V6" stroke="#BABABA" stroke-width="1.5" stroke-linecap="round" stroke-linejoin="round"/>
<path d="M21.125 14V12C21.125 8.22876 21.125 6.34315 19.9534 5.17157C18.7819 4 16.8962 4 13.125 4H11.125C7.35376 4 5.46815 4 4.29657 5.17157C3.125 6.34315 3.125 8.22876 3.125 12V14C3.125 17.7712 3.125 19.6569 4.29657 20.8284C5.46815 22 7.35376 22 11.125 22H12.125" stroke="#BABABA" stroke-width="1.5" stroke-linecap="round" stroke-linejoin="round"/>
<path d="M3.125 10H21.125" stroke="#BABABA" stroke-width="1.5" stroke-linecap="round" stroke-linejoin="round"/>
<path d="M18.2297 15.5055L18.8456 16.7475C18.9296 16.9204 19.1536 17.0862 19.3425 17.118L20.4589 17.305C21.1728 17.425 21.3408 17.9472 20.8264 18.4624L19.9585 19.3374C19.8115 19.4856 19.731 19.7715 19.7765 19.9761L20.025 21.0594C20.221 21.9168 19.7695 22.2485 19.0171 21.8004L17.9707 21.1758C17.7817 21.0629 17.4703 21.0629 17.2778 21.1758L16.2314 21.8004C15.4825 22.2485 15.0275 21.9133 15.2235 21.0594L15.472 19.9761C15.5175 19.7715 15.437 19.4856 15.29 19.3374L14.4221 18.4624C13.9111 17.9472 14.0756 17.425 14.7896 17.305L15.9059 17.118C16.0914 17.0862 16.3154 16.9204 16.3994 16.7475L17.0153 15.5055C17.3513 14.8315 17.8972 14.8315 18.2297 15.5055Z" stroke="#BABABA" stroke-width="1.5" stroke-linecap="round" stroke-linejoin="round"/>
</svg>
