<svg width="25" height="24" viewBox="0 0 25 24" fill="none" xmlns="http://www.w3.org/2000/svg">
<path d="M18.375 3V8M6.375 3V8" stroke="#BABABA" stroke-width="1.5" stroke-linecap="round" stroke-linejoin="round"/>
<path d="M20.875 4V5.5M20.875 5.5V7M20.875 5.5H22.375M3.875 4V5.5M3.875 5.5V7M3.875 5.5H2.375" stroke="#BABABA" stroke-width="1.5" stroke-linecap="round" stroke-linejoin="round"/>
<path d="M18.375 5.5H6.375" stroke="#BABABA" stroke-width="1.5" stroke-linecap="round" stroke-linejoin="round"/>
<path d="M7.65153 19H17.0985C18.336 19 18.9547 19 19.2106 18.6974C19.7913 18.0107 18.6788 17.1031 18.2729 16.6456C17.8155 16.1302 17.4809 16 16.8049 16H7.94513C7.26908 16 6.93453 16.1302 6.47714 16.6456C6.07117 17.1031 4.95875 18.0107 5.53944 18.6974C5.79526 19 6.41402 19 7.65153 19Z" stroke="#BABABA" stroke-width="1.5" stroke-linecap="round" stroke-linejoin="round"/>
<path d="M9.375 8V16M15.375 8V16" stroke="#BABABA" stroke-width="1.5" stroke-linecap="round" stroke-linejoin="round"/>
<path d="M16.375 19V21M8.375 19V21" stroke="#BABABA" stroke-width="1.5" stroke-linecap="round" stroke-linejoin="round"/>
</svg>
