<svg width="20" height="20" viewBox="0 0 20 20" fill="none" xmlns="http://www.w3.org/2000/svg">
<path d="M5.48131 12.9013C4.30234 13.6033 1.21114 15.0367 3.09388 16.8304C4.01359 17.7066 5.03791 18.3333 6.32572 18.3333H13.6743C14.9621 18.3333 15.9864 17.7066 16.9061 16.8304C18.7889 15.0367 15.6977 13.6033 14.5187 12.9013C11.754 11.2551 8.24599 11.2551 5.48131 12.9013Z" stroke="#87B842" stroke-width="1.5" stroke-linecap="round" stroke-linejoin="round"/>
<path d="M13.75 5.41663C13.75 7.48769 12.0711 9.16663 10 9.16663C7.92893 9.16663 6.25 7.48769 6.25 5.41663C6.25 3.34556 7.92893 1.66663 10 1.66663C12.0711 1.66663 13.75 3.34556 13.75 5.41663Z" stroke="#87B842" stroke-width="1.5"/>
</svg>
