<svg width="24" height="24" viewBox="0 0 24 24" fill="none" xmlns="http://www.w3.org/2000/svg">
<g clip-path="url(#clip0_32292_1408)">
<path d="M14.3555 9.87998C14.0874 9.58523 13.7641 9.34882 13.4049 9.18485C13.0457 9.02088 12.6579 8.93272 12.2648 8.92561C11.8716 8.9185 11.481 8.9926 11.1164 9.14348C10.7517 9.29437 10.4205 9.51895 10.1424 9.80382C9.86436 10.0887 9.64515 10.428 9.49787 10.8016C9.35058 11.1751 9.27826 11.5753 9.28519 11.9781C9.29213 12.3809 9.37819 12.7781 9.53825 13.1461C9.6983 13.5141 9.92906 13.8453 10.2168 14.12M18.0843 6.05997C16.4157 4.75697 14.3839 4.03511 12.2861 3.99998C5.45331 3.99998 1.54883 12 1.54883 12C2.76301 14.3181 4.44706 16.3434 6.48799 17.94L18.0843 6.05997ZM10.2363 19.76C10.9082 19.9211 11.5961 20.0016 12.2861 20C19.119 20 23.0235 12 23.0235 12C22.4309 10.8644 21.7243 9.79524 20.915 8.80998L10.2363 19.76Z" stroke="#757575" stroke-width="1.5" stroke-linecap="round" stroke-linejoin="round"/>
<path d="M1.54883 23L23.0235 1" stroke="#757575" stroke-width="2" stroke-linecap="round" stroke-linejoin="round"/>
</g>
<defs>
<clipPath id="clip0_32292_1408">
<rect width="23.4269" height="24" fill="white" transform="matrix(1 0 0 -1 0.572266 24)"/>
</clipPath>
</defs>
</svg>
