<svg width="20" height="21" viewBox="0 0 20 21" fill="none" xmlns="http://www.w3.org/2000/svg">
<g clip-path="url(#clip0_32438_4764)">
<mask id="mask0_32438_4764" style="mask-type:luminance" maskUnits="userSpaceOnUse" x="0" y="0" width="20" height="21">
<path d="M0 0.5H20V20.5H0V0.5Z" fill="white"/>
</mask>
<g mask="url(#mask0_32438_4764)">
<mask id="mask1_32438_4764" style="mask-type:luminance" maskUnits="userSpaceOnUse" x="0" y="0" width="20" height="21">
<path d="M0 0.5H20V20.5H0V0.5Z" fill="white"/>
</mask>
<g mask="url(#mask1_32438_4764)">
<path d="M14.375 2.375H5.625C3.55393 2.375 1.875 4.05393 1.875 6.125V14.875C1.875 16.9461 3.55393 18.625 5.625 18.625H14.375C16.4461 18.625 18.125 16.9461 18.125 14.875V6.125C18.125 4.05393 16.4461 2.375 14.375 2.375Z" stroke="#F55216" stroke-width="1.25" stroke-linejoin="round"/>
<path d="M14.772 6.88197C14.2143 6.37396 13.5971 5.96619 12.9203 5.65866C12.0084 5.24429 11.0349 5.03711 9.99993 5.03711C8.96493 5.03711 7.99148 5.24429 7.07959 5.65866C6.40281 5.96619 5.78556 6.37396 5.22783 6.88197C5.0826 7.01427 5.00375 7.17845 4.99127 7.37452C4.97879 7.57059 5.0362 7.74344 5.16349 7.89309L6.46526 9.42497C6.52781 9.49825 6.60715 9.54234 6.70327 9.55724C6.79939 9.57215 6.88875 9.55391 6.97134 9.50253C7.98585 8.8761 8.99564 8.56289 10.0007 8.56289C11.0058 8.56289 12.015 8.87573 13.0283 9.50141C13.1121 9.55354 13.202 9.57215 13.2982 9.55724C13.3943 9.54234 13.4739 9.4979 13.5371 9.42391L14.8359 7.89361C14.9635 7.74362 15.0211 7.57059 15.0086 7.37452C14.9961 7.17845 14.9172 7.01428 14.772 6.88197ZM15.6138 5.95788C16.0081 6.31707 16.2222 6.76282 16.256 7.29512C16.29 7.82743 16.1343 8.29655 15.7889 8.70249L14.4878 10.2355C14.224 10.5445 13.8913 10.7302 13.4897 10.7925C13.0881 10.8547 12.7154 10.7789 12.3716 10.565C11.5595 10.0636 10.7692 9.81289 10.0007 9.81289C9.23218 9.81289 8.4425 10.0632 7.63166 10.5639C7.28661 10.7785 6.9133 10.8547 6.51173 10.7925C6.11016 10.7302 5.77716 10.5442 5.51273 10.2344L4.21137 8.703C3.86577 8.29672 3.70992 7.82743 3.74379 7.29512C3.77767 6.76282 3.99177 6.31707 4.38609 5.95787C5.0408 5.36152 5.76626 4.88244 6.56247 4.52064C7.63865 4.03162 8.78447 3.78711 9.99993 3.78711C11.2154 3.78711 12.3612 4.03162 13.4374 4.52064C14.2336 4.88244 14.9592 5.36153 15.6138 5.95788Z" fill="#F55216"/>
</g>
</g>
</g>
<defs>
<clipPath id="clip0_32438_4764">
<rect width="20" height="20" fill="white" transform="translate(0 0.5)"/>
</clipPath>
</defs>
</svg>
