<svg width="20" height="20" viewBox="0 0 20 20" fill="none" xmlns="http://www.w3.org/2000/svg">
<mask id="mask0_32438_1127" style="mask-type:luminance" maskUnits="userSpaceOnUse" x="0" y="0" width="20" height="20">
<path d="M0 0H20V20H0V0Z" fill="white"/>
</mask>
<g mask="url(#mask0_32438_1127)">
<path d="M9.6875 3.125C8.79725 3.125 7.9459 3.29683 7.13346 3.6405C6.34842 3.97259 5.65302 4.44151 5.04726 5.04726C4.44151 5.65302 3.97259 6.34842 3.64051 7.13346C3.29684 7.9459 3.125 8.79725 3.125 9.6875C3.125 10.5778 3.29683 11.4291 3.6405 12.2415C3.97259 13.0266 4.44151 13.722 5.04726 14.3277C5.65302 14.9335 6.34842 15.4024 7.13346 15.7345C7.9459 16.0782 8.79725 16.25 9.6875 16.25C10.5778 16.25 11.4291 16.0782 12.2415 15.7345C13.0266 15.4024 13.722 14.9335 14.3277 14.3277C14.9335 13.722 15.4024 13.0266 15.7345 12.2415C16.0782 11.4291 16.25 10.5777 16.25 9.6875C16.25 8.79725 16.0782 7.9459 15.7345 7.13346C15.4024 6.34842 14.9335 5.65302 14.3277 5.04726C13.722 4.44151 13.0266 3.97259 12.2415 3.64051C11.4291 3.29684 10.5777 3.125 9.6875 3.125ZM9.6875 1.875C10.7468 1.875 11.7604 2.07976 12.7285 2.48927C13.6632 2.88466 14.4909 3.4427 15.2116 4.16338C15.9323 4.88405 16.4903 5.71175 16.8857 6.64648C17.2952 7.61457 17.5 8.62824 17.5 9.6875C17.5 10.7468 17.2952 11.7604 16.8857 12.7285C16.4903 13.6632 15.9323 14.4909 15.2116 15.2116C14.4909 15.9323 13.6632 16.4903 12.7285 16.8857C11.7604 17.2952 10.7468 17.5 9.6875 17.5C8.62824 17.5 7.61457 17.2952 6.64648 16.8857C5.71175 16.4903 4.88405 15.9323 4.16338 15.2116C3.4427 14.4909 2.88467 13.6632 2.48927 12.7285C2.07976 11.7604 1.875 10.7468 1.875 9.6875C1.875 8.62824 2.07976 7.61457 2.48927 6.64648C2.88466 5.71176 3.4427 4.88406 4.16338 4.16338C4.88406 3.4427 5.71176 2.88467 6.64648 2.48927C7.61457 2.07976 8.62824 1.875 9.6875 1.875Z" fill="#87B842"/>
<path fill-rule="evenodd" clip-rule="evenodd" d="M7.96875 8.59375C7.96875 8.93893 8.24858 9.21875 8.59375 9.21875H9.21875V13.125C9.21875 13.4702 9.49857 13.75 9.84375 13.75C10.1889 13.75 10.4688 13.4702 10.4688 13.125V8.59375C10.4688 8.55271 10.4647 8.51207 10.4567 8.47182C10.4487 8.43157 10.4369 8.39249 10.4212 8.35457C10.4055 8.31666 10.3862 8.28064 10.3634 8.24652C10.3406 8.2124 10.3147 8.18083 10.2857 8.15181C10.2567 8.12279 10.2251 8.09688 10.191 8.07408C10.1569 8.05128 10.1208 8.03203 10.0829 8.01632C10.045 8.00062 10.0059 7.98877 9.96568 7.98076C9.92543 7.97275 9.88479 7.96875 9.84375 7.96875H8.59375C8.24858 7.96875 7.96875 8.24858 7.96875 8.59375Z" fill="#87B842"/>
<path fill-rule="evenodd" clip-rule="evenodd" d="M7.5 13.2812C7.5 13.6264 7.77983 13.9062 8.125 13.9062H11.5625C11.9077 13.9062 12.1875 13.6264 12.1875 13.2812C12.1875 12.9361 11.9077 12.6562 11.5625 12.6562H8.125C7.77983 12.6562 7.5 12.9361 7.5 13.2812Z" fill="#87B842"/>
<path d="M9.68749 5.07812C9.40704 5.07812 9.16766 5.17728 8.96934 5.37559C8.77103 5.57391 8.67188 5.81329 8.67188 6.09374C8.67188 6.3742 8.77103 6.6136 8.96934 6.81191C9.16766 7.01022 9.40704 7.10938 9.68749 7.10938C9.96795 7.10938 10.2073 7.01022 10.4057 6.81191C10.604 6.6136 10.7031 6.3742 10.7031 6.09374C10.7031 5.81329 10.604 5.57391 10.4057 5.37559C10.2073 5.17728 9.96795 5.07812 9.68749 5.07812Z" fill="#87B842"/>
</g>
</svg>
